<svg width="127" height="80" viewBox="0 0 127 80" fill="none" xmlns="http://www.w3.org/2000/svg">
<path d="M119.788 48.6545L126.265 50.0106L119.763 51.3709C118.159 51.7059 116.906 52.9531 116.555 54.5555L115.221 60.6704L113.886 54.5555C113.536 52.9531 112.278 51.7059 110.678 51.3709L104.176 50.0106L110.654 48.6545C112.27 48.3154 113.532 47.0521 113.87 45.4335L115.225 38.9473L116.579 45.4335C116.918 47.0521 118.179 48.3154 119.796 48.6545H119.788Z" fill="white"/>
<path d="M15.6119 9.70719L22.0896 11.0634L15.5877 12.4236C13.9834 12.7586 12.7297 14.0058 12.379 15.6082L11.0448 21.7231L9.71055 15.6082C9.35986 14.0058 8.1022 12.7586 6.50192 12.4236L0 11.0634L6.47773 9.70719C8.09414 9.36815 9.35583 8.1048 9.69443 6.48626L11.0488 0L12.4032 6.48626C12.7418 8.1048 14.0035 9.36815 15.6199 9.70719H15.6119Z" fill="white"/>
<path d="M15.1779 72.436L18.8703 73.211L15.1618 73.986C14.2468 74.1757 13.5333 74.8901 13.3317 75.8023L12.5699 79.2896L11.8081 75.8023C11.6065 74.8901 10.893 74.1797 9.978 73.986L6.26953 73.211L9.96188 72.436C10.885 72.2423 11.6025 71.5239 11.796 70.5995L12.5699 66.9023L13.3438 70.5995C13.5373 71.5239 14.2548 72.2423 15.1779 72.436Z" fill="white"/>
<path d="M54.2196 38.4615L57.2267 39.0911L54.2075 39.7248C53.4618 39.8823 52.8813 40.4594 52.716 41.2021L52.0953 44.0396L51.4745 41.2021C51.3133 40.4594 50.7288 39.8782 49.983 39.7248L46.9639 39.0911L49.971 38.4615C50.7207 38.3041 51.3092 37.7188 51.4624 36.9681L52.0912 33.957L52.7201 36.9681C52.8773 37.7188 53.4617 38.3081 54.2115 38.4615H54.2196Z" fill="white"/>
<path d="M26.9842 29.4654L29.9913 30.0951L26.9721 30.7287C26.2264 30.8862 25.6459 31.4633 25.4807 32.206L24.8599 35.0435L24.2391 32.206C24.0779 31.4633 23.4934 30.8821 22.7477 30.7287L19.7285 30.0951L22.7356 29.4654C23.4854 29.308 24.0739 28.7227 24.2271 27.972L24.8559 24.9609L25.4847 27.972C25.6419 28.7227 26.2264 29.312 26.9762 29.4654H26.9842Z" fill="white"/>
<path d="M110.558 27.2916L113.566 27.9212L110.546 28.5549C109.801 28.7123 109.22 29.2895 109.055 30.0322L108.434 32.8697L107.813 30.0322C107.652 29.2895 107.068 28.7083 106.322 28.5549L103.303 27.9212L106.31 27.2916C107.06 27.1342 107.648 26.5489 107.801 25.7982L108.43 22.7871L109.059 25.7982C109.216 26.5489 109.801 27.1382 110.55 27.2916H110.558Z" fill="white"/>
<path d="M91.5798 49.5669L92.9665 49.8576L91.5758 50.1482C91.2331 50.2208 90.9631 50.4872 90.8905 50.8303L90.6043 52.138L90.3181 50.8303C90.2415 50.4872 89.9755 50.2208 89.6329 50.1482L88.2422 49.8576L89.6288 49.5669C89.9755 49.4943 90.2456 49.2239 90.3181 48.8768L90.6084 47.4883L90.8986 48.8768C90.9711 49.2239 91.2412 49.4943 91.5879 49.5669H91.5798Z" fill="white"/>
<path d="M94.8445 29.9087L96.2311 30.1994L94.8404 30.49C94.4978 30.5626 94.2277 30.829 94.1552 31.1721L93.869 32.4798L93.5828 31.1721C93.5062 30.829 93.2401 30.5626 92.8975 30.49L91.5068 30.1994L92.8935 29.9087C93.2401 29.8361 93.5102 29.5657 93.5828 29.2186L93.873 27.8301L94.1632 29.2186C94.2358 29.5657 94.5059 29.8361 94.8525 29.9087H94.8445Z" fill="white"/>
<path d="M105.616 40.5957L109.054 41.3142L105.604 42.0366C104.753 42.2142 104.088 42.8762 103.899 43.7278L103.189 46.973L102.48 43.7278C102.294 42.8762 101.625 42.2142 100.775 42.0366L97.3242 41.3142L100.763 40.5957C101.621 40.4141 102.29 39.7441 102.472 38.8843L103.189 35.4414L103.907 38.8843C104.088 39.7441 104.757 40.4141 105.616 40.5957Z" fill="white"/>
</svg>
