<svg width="312" height="209" viewBox="0 0 312 209" fill="none" xmlns="http://www.w3.org/2000/svg">
<path d="M77.0765 200.777C77.0765 200.777 41.7114 196.98 18.0847 165.995C-5.54203 135.011 -4.31187 111.652 12.8941 99.2575C30.1008 86.869 41.1052 78.1359 33.326 46.3135C25.5484 14.5029 54.992 -3.2013 84.2465 1.75164C113.501 6.70457 116.668 39.6801 153.532 41.0943C190.397 42.5084 204.287 20.3462 231.925 21.8927C259.563 23.4392 269.274 47.3969 259.77 64.4059C250.267 81.4149 257.641 109.199 286.372 119.235C315.103 129.27 327.444 176.088 281.38 189.773C235.316 203.458 128.655 218.552 77.0696 200.777L77.0765 200.777Z" fill="#75A9EF" fill-opacity="0.51"/>
</svg>
