<svg width="337" height="196" viewBox="0 0 337 196" fill="none" xmlns="http://www.w3.org/2000/svg">
<path d="M69.874 166.404C69.874 166.404 31.9959 156.313 12.5591 125.952C-6.87759 95.5898 -0.713786 76.436 20.6529 69.5202C42.0192 62.6093 55.851 57.517 53.9118 29.5683C51.9718 1.6298 87.8122 -7.29404 118.772 2.55751C149.731 12.4091 146.39 40.4103 186.399 48.8164C226.408 57.2226 246.165 41.5459 276.06 48.252C305.955 54.9581 311.628 76.7555 297.73 89.0139C283.832 101.272 286.161 125.788 315.5 139.757C344.839 153.726 348.671 195.021 295.49 197.347C242.31 199.674 122.593 191.281 69.8663 166.403L69.874 166.404Z" fill="#2E45AE"/>
</svg>
