<svg width="20" height="20" viewBox="0 0 20 20" fill="none" xmlns="http://www.w3.org/2000/svg">
<path fill-rule="evenodd" clip-rule="evenodd" d="M10.8333 1.66666H7.33325C5.93312 1.66666 5.23305 1.66666 4.69828 1.93914C4.22787 2.17882 3.84542 2.56128 3.60574 3.03168C3.33325 3.56646 3.33325 4.26653 3.33325 5.66666V14.3333C3.33325 15.7335 3.33325 16.4335 3.60574 16.9683C3.84542 17.4387 4.22787 17.8212 4.69828 18.0608C5.23305 18.3333 5.93312 18.3333 7.33325 18.3333H12.6666C14.0667 18.3333 14.7668 18.3333 15.3016 18.0608C15.772 17.8212 16.1544 17.4387 16.3941 16.9683C16.6666 16.4335 16.6666 15.7335 16.6666 14.3333V7.49999H13.4999C12.5665 7.49999 12.0998 7.49999 11.7433 7.31833C11.4297 7.15854 11.1747 6.90358 11.0149 6.58997C10.8333 6.23345 10.8333 5.76674 10.8333 4.83332V1.66666ZM9.99992 9.16666C10.4602 9.16666 10.8333 9.53975 10.8333 9.99999V11.6667H12.4999C12.9602 11.6667 13.3333 12.0398 13.3333 12.5C13.3333 12.9602 12.9602 13.3333 12.4999 13.3333H10.8333V15C10.8333 15.4602 10.4602 15.8333 9.99992 15.8333C9.53968 15.8333 9.16659 15.4602 9.16659 15V13.3333H7.49992C7.03968 13.3333 6.66659 12.9602 6.66659 12.5C6.66659 12.0398 7.03968 11.6667 7.49992 11.6667H9.16659V9.99999C9.16659 9.53975 9.53968 9.16666 9.99992 9.16666Z" fill="currentColor"/>
<path d="M16.1784 5.34521C16.3209 5.48772 16.435 5.65339 16.5169 5.83336H12.9166C12.6865 5.83336 12.4999 5.64681 12.4999 5.4167V1.8164C12.6799 1.8983 12.8456 2.01234 12.9881 2.15485L16.1784 5.34521Z" fill="currentColor"/>
</svg>
