<svg width="20" height="20" viewBox="0 0 20 20" fill="none" xmlns="http://www.w3.org/2000/svg">
<path d="M18.3253 5.98835C18.3216 5.8759 18.316 5.76999 18.3079 5.67082C18.281 5.34137 18.2216 5.01369 18.0609 4.69837C17.8212 4.22796 17.4388 3.84551 16.9684 3.60583C16.6531 3.44517 16.3254 3.38574 15.9959 3.35882C15.6838 3.33332 15.3048 3.33333 14.8656 3.33334H5.13463C4.69535 3.33333 4.31636 3.33332 4.00423 3.35882C3.67477 3.38574 3.34709 3.44517 3.03177 3.60583C2.56137 3.84551 2.17892 4.22796 1.93923 4.69837C1.77857 5.01369 1.71914 5.34137 1.69222 5.67082C1.68412 5.76999 1.6786 5.8759 1.67483 5.98835C2.09031 6.51788 2.65733 7.01692 3.37068 7.46276C5.02818 8.4987 7.36986 9.16668 10.0001 9.16668C12.6303 9.16668 14.972 8.4987 16.6295 7.46276C17.3428 7.01692 17.9099 6.51788 18.3253 5.98835Z" fill="currentColor"/>
<path d="M18.3334 8.30178C18.0741 8.50507 17.7997 8.69677 17.5128 8.87609C15.551 10.1022 12.8927 10.8333 10.0001 10.8333C7.10746 10.8333 4.44914 10.1022 2.48735 8.87609C2.20043 8.69677 1.92606 8.50507 1.66675 8.30178V13.1988C1.66673 13.6381 1.66672 14.0171 1.69222 14.3292C1.71914 14.6587 1.77857 14.9863 1.93923 15.3017C2.17892 15.7721 2.56137 16.1545 3.03177 16.3942C3.34709 16.5549 3.67477 16.6143 4.00423 16.6412C4.31635 16.6667 4.69529 16.6667 5.13455 16.6667H14.8655C15.3048 16.6667 15.6838 16.6667 15.9959 16.6412C16.3254 16.6143 16.6531 16.5549 16.9684 16.3942C17.4388 16.1545 17.8212 15.7721 18.0609 15.3017C18.2216 14.9863 18.281 14.6587 18.3079 14.3292C18.3334 14.0171 18.3334 13.6381 18.3334 13.1988V8.30178Z" fill="currentColor"/>
</svg>
