<svg width="20" height="20" viewBox="0 0 20 20" fill="none" xmlns="http://www.w3.org/2000/svg">
<path fill-rule="evenodd" clip-rule="evenodd" d="M6.94866 3.40391C7.94275 2.82886 9.09706 2.5 10.3256 2.5C14.0551 2.5 17.0784 5.52332 17.0784 9.25277C17.0784 11.1606 16.812 13.0077 16.3138 14.758C16.1878 15.2007 15.7268 15.4574 15.2842 15.3314C14.8415 15.2054 14.5848 14.7444 14.7108 14.3018C15.1672 12.6984 15.4118 11.0048 15.4118 9.25277C15.4118 6.44379 13.1346 4.16667 10.3256 4.16667C9.39787 4.16667 8.53045 4.41433 7.7832 4.84659C7.38482 5.07704 6.87505 4.9409 6.64459 4.54252C6.41414 4.14414 6.55028 3.63436 6.94866 3.40391ZM5.6154 5.57171C6.01379 5.80216 6.14992 6.31194 5.91947 6.71032C5.48721 7.45757 5.23955 8.32498 5.23955 9.25277C5.23955 10.5394 4.94382 11.7593 4.41585 12.8461C4.21474 13.26 3.71612 13.4326 3.30215 13.2315C2.88817 13.0304 2.71561 12.5317 2.91672 12.1178C3.33684 11.253 3.57288 10.2816 3.57288 9.25277C3.57288 8.02418 3.90174 6.86987 4.47679 5.87578C4.70725 5.47739 5.21702 5.34126 5.6154 5.57171ZM6.53246 9.25285C6.53246 7.158 8.23067 5.4598 10.3255 5.4598C12.4204 5.4598 14.1186 7.158 14.1186 9.25285C14.1186 10.0432 14.0647 10.822 13.9605 11.5854C13.8982 12.0414 13.478 12.3606 13.022 12.2983C12.566 12.236 12.2469 11.8159 12.3091 11.3599C12.4032 10.6709 12.4519 9.96752 12.4519 9.25285C12.4519 8.07848 11.4999 7.12646 10.3255 7.12646C9.15114 7.12646 8.19913 8.07848 8.19913 9.25285C8.19913 11.4431 7.57215 13.4804 6.48875 15.2026C6.4788 15.2185 6.46908 15.2344 6.45961 15.2503C6.2246 15.646 5.7133 15.7763 5.31759 15.5413C4.92187 15.3063 4.7916 14.795 5.02661 14.3993C5.04334 14.3711 5.06047 14.3431 5.078 14.3152C5.99906 12.851 6.53246 11.12 6.53246 9.25285ZM10.3256 8.4196C10.7858 8.4196 11.1589 8.79269 11.1589 9.25293C11.1589 12.017 10.3657 14.5983 8.99406 16.7787C8.749 17.1682 8.23453 17.2854 7.84496 17.0403C7.45539 16.7953 7.33825 16.2808 7.58331 15.8912C8.79261 13.9688 9.49223 11.6939 9.49223 9.25293C9.49223 8.79269 9.86532 8.4196 10.3256 8.4196ZM12.8986 12.8906C13.3414 13.0159 13.5988 13.4765 13.4735 13.9193C13.1792 14.9595 12.789 15.9598 12.3131 16.9097C12.107 17.3212 11.6063 17.4876 11.1948 17.2815C10.7833 17.0753 10.6169 16.5747 10.823 16.1632C11.2524 15.3061 11.6043 14.4037 11.8698 13.4655C11.9952 13.0227 12.4557 12.7653 12.8986 12.8906Z" fill="currentColor"/>
</svg>
