<svg width="20" height="20" viewBox="0 0 20 20" fill="none" xmlns="http://www.w3.org/2000/svg">
<path fill-rule="evenodd" clip-rule="evenodd" d="M9.5923 1.77304C9.84554 1.63099 10.1545 1.63099 10.4077 1.77304L11.3873 2.32253L12.5103 2.33644C12.8007 2.34004 13.0682 2.4945 13.2165 2.74414L13.7901 3.70978L14.7557 4.28337C15.0053 4.43165 15.1598 4.69918 15.1634 4.98952L15.1773 6.11258L15.7268 7.09214C15.8688 7.34538 15.8688 7.6543 15.7268 7.90753L15.1773 8.88709L15.1634 10.0102C15.1598 10.3005 15.0053 10.568 14.7557 10.7163L13.7901 11.2899L13.2165 12.2555C13.0682 12.5052 12.8007 12.6596 12.5103 12.6632L11.3873 12.6771L10.4077 13.2266C10.1545 13.3687 9.84554 13.3687 9.5923 13.2266L8.61275 12.6771L7.48968 12.6632C7.19934 12.6596 6.93181 12.5052 6.78353 12.2555L6.20995 11.2899L5.2443 10.7163C4.99466 10.568 4.8402 10.3005 4.8366 10.0102L4.82269 8.88709L4.27321 7.90753C4.13115 7.6543 4.13115 7.34538 4.27321 7.09214L4.82269 6.11258L4.8366 4.98952C4.8402 4.69918 4.99466 4.43165 5.2443 4.28337L6.20995 3.70979L6.78353 2.74414C6.93181 2.4945 7.19934 2.34004 7.48968 2.33644L8.61274 2.32253L9.5923 1.77304ZM7.5 7.49984C7.5 6.11913 8.61929 4.99984 10 4.99984C11.3807 4.99984 12.5 6.11913 12.5 7.49984C12.5 8.88055 11.3807 9.99984 10 9.99984C8.61929 9.99984 7.5 8.88055 7.5 7.49984Z" fill="currentColor"/>
<path d="M12.588 17.8726L11.0386 14.7739C11.1011 14.7454 11.1626 14.7141 11.2231 14.6802L11.8324 14.3384L12.531 14.3298C13.402 14.319 14.2046 13.8556 14.6494 13.1067L15.0062 12.506L15.6068 12.1493C15.6455 12.1263 15.6834 12.1024 15.7205 12.0775L17.412 15.4606C17.5412 15.7189 17.5274 16.0257 17.3755 16.2714C17.2237 16.5171 16.9555 16.6666 16.6667 16.6666H15L14 18C13.8267 18.231 13.5461 18.3559 13.2585 18.3299C12.9708 18.304 12.7171 18.131 12.588 17.8726Z" fill="currentColor"/>
<path d="M2.58798 15.4606L4.2795 12.0776C4.31661 12.1024 4.3545 12.1263 4.39315 12.1493L4.99381 12.506L5.35058 13.1067C5.79543 13.8556 6.59803 14.319 7.46904 14.3298L8.16761 14.3384L8.77691 14.6802C8.8374 14.7141 8.89894 14.7454 8.96138 14.7739L7.41202 17.8726C7.28286 18.131 7.02915 18.304 6.74151 18.3299C6.45386 18.3559 6.17329 18.231 6 18L5 16.6666H3.33333C3.04452 16.6666 2.7763 16.5171 2.62446 16.2714C2.47262 16.0257 2.45882 15.7189 2.58798 15.4606Z" fill="currentColor"/>
</svg>
