<svg width="20" height="20" viewBox="0 0 20 20" fill="none" xmlns="http://www.w3.org/2000/svg">
<path d="M7.32588 3.52579C6.86645 3.3509 6.35326 3.38775 5.92353 3.62649L4.01239 4.68822C3.73441 4.84266 3.56855 5.14183 3.58486 5.45942C3.60116 5.777 3.79679 6.05762 4.08912 6.18277L7.60942 7.68986L5.50875 8.85689L4.18804 8.04105C3.91075 7.86975 3.55903 7.87585 3.28784 8.05665L2.03784 8.88998C1.83941 9.02227 1.70716 9.23323 1.67457 9.46948C1.64198 9.70572 1.71217 9.94461 1.86737 10.1257L4.36737 13.0423C4.52569 13.2271 4.75682 13.3334 5.00009 13.3334H8.33378C8.4754 13.3334 8.61468 13.2973 8.73848 13.2285L16.2385 9.06182C16.3062 9.02422 16.3683 8.97736 16.423 8.92261L17.6953 7.65038C18.1041 7.24155 18.3338 6.68705 18.3338 6.10887C18.3338 4.79758 17.1845 3.78303 15.8833 3.94567L14.3842 4.13307C14.0667 4.17275 13.7598 4.273 13.4801 4.42837L11.9419 5.28297L7.32588 3.52579Z" fill="currentColor"/>
<path d="M2.50009 15C2.03985 15 1.66675 15.3731 1.66675 15.8334C1.66675 16.2936 2.03985 16.6667 2.50009 16.6667H17.5001C17.9603 16.6667 18.3334 16.2936 18.3334 15.8334C18.3334 15.3731 17.9603 15 17.5001 15H2.50009Z" fill="currentColor"/>
</svg>
