<svg width="20" height="20" viewBox="0 0 20 20" fill="none" xmlns="http://www.w3.org/2000/svg">
<path d="M5.83317 1.6665C6.29341 1.6665 6.66651 2.0396 6.66651 2.49984V3.33317L13.3332 3.33317V2.49984C13.3332 2.0396 13.7063 1.6665 14.1665 1.6665C14.6267 1.6665 14.9998 2.0396 14.9998 2.49984V3.33319C15.3824 3.33343 15.7159 3.33578 15.9957 3.35865C16.3252 3.38556 16.6528 3.44499 16.9681 3.60565C17.4386 3.84534 17.821 4.22779 18.0607 4.69819C18.2213 5.01351 18.2808 5.34119 18.3077 5.67065C18.3306 5.95046 18.3329 6.28398 18.3331 6.6665L1.66653 6.6665C1.66676 6.28398 1.66912 5.95046 1.69198 5.67065C1.7189 5.34119 1.77833 5.01351 1.93899 4.69819C2.17867 4.22779 2.56113 3.84534 3.03153 3.60565C3.34685 3.44499 3.67453 3.38556 4.00398 3.35865C4.2838 3.33578 4.61731 3.33343 4.99984 3.33319V2.49984C4.99984 2.0396 5.37294 1.6665 5.83317 1.6665Z" fill="currentColor"/>
<path fill-rule="evenodd" clip-rule="evenodd" d="M1.6665 8.33317L1.6665 14.8653C1.66649 15.3046 1.66648 15.6836 1.69198 15.9957C1.7189 16.3251 1.77833 16.6528 1.93899 16.9681C2.17867 17.4386 2.56113 17.821 3.03153 18.0607C3.34685 18.2213 3.67453 18.2808 4.00398 18.3077C4.31612 18.3332 4.69509 18.3332 5.13437 18.3332H14.8653C15.3046 18.3332 15.6836 18.3332 15.9957 18.3077C16.3252 18.2808 16.6528 18.2213 16.9681 18.0607C17.4386 17.821 17.821 17.4386 18.0607 16.9681C18.2213 16.6528 18.2808 16.3251 18.3077 15.9957C18.3332 15.6836 18.3332 15.3046 18.3332 14.8653V8.33317L1.6665 8.33317ZM3.33317 10.8332C3.33317 10.3729 3.70627 9.99984 4.16651 9.99984H5.83317C6.29341 9.99984 6.66651 10.3729 6.66651 10.8332C6.66651 11.2934 6.29341 11.6665 5.83317 11.6665H4.16651C3.70627 11.6665 3.33317 11.2934 3.33317 10.8332ZM8.33317 10.8332C8.33317 10.3729 8.70627 9.99984 9.16651 9.99984H10.8332C11.2934 9.99984 11.6665 10.3729 11.6665 10.8332C11.6665 11.2934 11.2934 11.6665 10.8332 11.6665H9.16651C8.70627 11.6665 8.33317 11.2934 8.33317 10.8332ZM14.1665 9.99984C13.7063 9.99984 13.3332 10.3729 13.3332 10.8332C13.3332 11.2934 13.7063 11.6665 14.1665 11.6665H15.8332C16.2934 11.6665 16.6665 11.2934 16.6665 10.8332C16.6665 10.3729 16.2934 9.99984 15.8332 9.99984H14.1665ZM3.33317 14.1665C3.33317 13.7063 3.70627 13.3332 4.16651 13.3332H5.83317C6.29341 13.3332 6.66651 13.7063 6.66651 14.1665C6.66651 14.6267 6.29341 14.9998 5.83317 14.9998H4.16651C3.70627 14.9998 3.33317 14.6267 3.33317 14.1665ZM9.16651 13.3332C8.70627 13.3332 8.33317 13.7063 8.33317 14.1665C8.33317 14.6267 8.70627 14.9998 9.16651 14.9998H10.8332C11.2934 14.9998 11.6665 14.6267 11.6665 14.1665C11.6665 13.7063 11.2934 13.3332 10.8332 13.3332H9.16651ZM13.3332 14.1665C13.3332 13.7063 13.7063 13.3332 14.1665 13.3332H15.8332C16.2934 13.3332 16.6665 13.7063 16.6665 14.1665C16.6665 14.6267 16.2934 14.9998 15.8332 14.9998H14.1665C13.7063 14.9998 13.3332 14.6267 13.3332 14.1665Z" fill="currentColor"/>
</svg>
