<svg width="20" height="20" viewBox="0 0 20 20" fill="none" xmlns="http://www.w3.org/2000/svg">
<path d="M8.33317 2.49984C8.33317 2.0396 8.70627 1.6665 9.1665 1.6665L10.8332 1.6665C11.2934 1.6665 11.6665 2.0396 11.6665 2.49984C11.6665 2.96007 11.2934 3.33317 10.8332 3.33317H9.1665C8.70627 3.33317 8.33317 2.96007 8.33317 2.49984Z" fill="currentColor"/>
<path fill-rule="evenodd" clip-rule="evenodd" d="M6.6665 3.33317L5.6665 3.33317C4.26637 3.33317 3.56631 3.33317 3.03153 3.60565C2.56112 3.84534 2.17867 4.22779 1.93899 4.69819C1.6665 5.23297 1.6665 5.93304 1.6665 7.33317L1.6665 13.4998C1.6665 14.9 1.6665 15.6 1.93899 16.1348C2.17867 16.6052 2.56112 16.9877 3.03153 17.2274C3.56631 17.4998 4.26637 17.4998 5.6665 17.4998H14.3332C15.7333 17.4998 16.4334 17.4998 16.9681 17.2274C17.4386 16.9877 17.821 16.6052 18.0607 16.1348C18.3332 15.6 18.3332 14.9 18.3332 13.4998V7.33317C18.3332 5.93304 18.3332 5.23297 18.0607 4.69819C17.821 4.22779 17.4386 3.84534 16.9681 3.60565C16.4334 3.33317 15.7333 3.33317 14.3332 3.33317L13.3332 3.33317C13.3332 4.25364 12.587 4.99984 11.6665 4.99984L8.33317 4.99984C7.4127 4.99984 6.6665 4.25364 6.6665 3.33317ZM9.99984 7.49984C9.07937 7.49984 8.33318 8.24603 8.33318 9.1665C8.33318 10.087 9.07937 10.8332 9.99984 10.8332C10.9203 10.8332 11.6665 10.087 11.6665 9.1665C11.6665 8.24603 10.9203 7.49984 9.99984 7.49984ZM9.99984 11.6665C8.48568 11.6665 7.0425 12.5518 6.69112 13.9655C6.62927 14.2143 6.68542 14.4778 6.84335 14.6798C7.00129 14.8818 7.24343 14.9998 7.49984 14.9998L12.4998 14.9998C12.7563 14.9998 12.9984 14.8818 13.1563 14.6798C13.3143 14.4778 13.3704 14.2143 13.3086 13.9655C12.9572 12.5518 11.514 11.6665 9.99984 11.6665Z" fill="currentColor"/>
</svg>
