<svg width="17" height="18" viewBox="0 0 17 18" fill="none" xmlns="http://www.w3.org/2000/svg">
<path d="M7.51668 0.833333C7.51668 0.373096 7.14359 0 6.68335 0C6.22311 0 5.85002 0.373096 5.85002 0.833333V1.66667H5.01668C4.55645 1.66667 4.18335 2.03976 4.18335 2.5C4.18335 2.96024 4.55645 3.33333 5.01668 3.33333H5.85002V4.16667C5.85002 4.6269 6.22311 5 6.68335 5C7.14359 5 7.51668 4.6269 7.51668 4.16667V3.33333H8.35002C8.81026 3.33333 9.18335 2.96024 9.18335 2.5C9.18335 2.03976 8.81026 1.66667 8.35002 1.66667H7.51668V0.833333Z" fill="#E5383B"/>
<path d="M13.1561 0.939116C13.4909 0.830353 13.8514 0.830353 14.1862 0.939116C14.4276 1.01756 14.6125 1.15054 14.7582 1.27423C14.8909 1.38686 15.0357 1.53171 15.1844 1.68043L15.6935 2.18952C15.8422 2.3382 15.987 2.48299 16.0996 2.61565C16.2233 2.76135 16.3563 2.94626 16.4347 3.18769C16.5435 3.52243 16.5435 3.88301 16.4347 4.21775C16.3563 4.45918 16.2233 4.64409 16.0996 4.7898C15.987 4.92245 15.8421 5.06729 15.6934 5.21596L13.503 7.40644L9.86029 3.97804L12.1579 1.68043C12.3066 1.53171 12.4514 1.38686 12.5841 1.27423C12.7298 1.15054 12.9147 1.01756 13.1561 0.939116Z" fill="#E5383B"/>
<path d="M8.68123 5.15709L12.3239 8.58549L4.35842 16.551C4.20974 16.6997 4.06492 16.8446 3.93225 16.9572C3.78655 17.0809 3.60164 17.2138 3.36021 17.2923C3.02547 17.4011 2.66489 17.4011 2.33015 17.2923C2.08872 17.2138 1.90381 17.0809 1.7581 16.9572C1.6255 16.8446 1.4807 16.6998 1.33209 16.5511L0.822889 16.0419C0.674161 15.8932 0.529319 15.7484 0.416688 15.6158C0.292994 15.4701 0.160018 15.2851 0.0815732 15.0437C-0.0271912 14.709 -0.0271906 14.3484 0.0815722 14.0137C0.160018 13.7722 0.292993 13.5873 0.416688 13.4416C0.529327 13.3089 0.674182 13.1641 0.822921 13.0154L8.68123 5.15709Z" fill="#E5383B"/>
<path d="M3.35009 5.00008C3.35009 4.53984 2.977 4.16674 2.51676 4.16674C2.05652 4.16674 1.68343 4.53984 1.68343 5.00008V5.83341H0.850094C0.389857 5.83341 0.0167605 6.20651 0.0167605 6.66674C0.0167605 7.12698 0.389857 7.50008 0.850094 7.50008H1.68343V8.33341C1.68343 8.79365 2.05652 9.16674 2.51676 9.16674C2.977 9.16674 3.35009 8.79365 3.35009 8.33341V7.50008H4.18343C4.64366 7.50008 5.01676 7.12698 5.01676 6.66674C5.01676 6.20651 4.64366 5.83341 4.18343 5.83341H3.35009V5.00008Z" fill="#E5383B"/>
<path d="M13.3501 11.6667C13.8103 11.6667 14.1834 12.0398 14.1834 12.5001V13.3334H15.0168C15.477 13.3334 15.8501 13.7065 15.8501 14.1667C15.8501 14.627 15.477 15.0001 15.0168 15.0001H14.1834V15.8334C14.1834 16.2936 13.8103 16.6667 13.3501 16.6667C12.8899 16.6667 12.5168 16.2936 12.5168 15.8334V15.0001H11.6834C11.2232 15.0001 10.8501 14.627 10.8501 14.1667C10.8501 13.7065 11.2232 13.3334 11.6834 13.3334H12.5168V12.5001C12.5168 12.0398 12.8899 11.6667 13.3501 11.6667Z" fill="#E5383B"/>
</svg>
