<svg width="20" height="20" viewBox="0 0 20 20" fill="none" xmlns="http://www.w3.org/2000/svg">
<path fill-rule="evenodd" clip-rule="evenodd" d="M15.5889 15.5894C15.2635 15.9149 14.7359 15.9149 14.4104 15.5894L9.99967 11.1787L5.58893 15.5894C5.26349 15.9149 4.73586 15.9149 4.41042 15.5894C4.08498 15.264 4.08498 14.7363 4.41042 14.4109L8.82116 10.0002L4.41042 5.58942C4.08498 5.26398 4.08498 4.73634 4.41042 4.41091C4.73586 4.08547 5.26349 4.08547 5.58893 4.41091L9.99967 8.82165L14.4104 4.41091C14.7359 4.08547 15.2635 4.08547 15.5889 4.41091C15.9144 4.73634 15.9144 5.26398 15.5889 5.58942L11.1782 10.0002L15.5889 14.4109C15.9144 14.7363 15.9144 15.264 15.5889 15.5894Z" fill="currentColor"/>
</svg>
