<svg width="20" height="20" viewBox="0 0 20 20" fill="none" xmlns="http://www.w3.org/2000/svg">
<path fill-rule="evenodd" clip-rule="evenodd" d="M8.08918 1.66666C7.49087 1.66666 6.91707 1.90433 6.494 2.3274C6.21014 2.61126 6.00974 2.96297 5.9086 3.34441C5.80348 3.34891 5.70368 3.35525 5.60941 3.36421C5.30099 3.39351 4.99452 3.45486 4.69828 3.60581C4.22787 3.84549 3.84542 4.22794 3.60574 4.69835C3.44508 5.01366 3.38565 5.34135 3.35873 5.6708C3.33323 5.98293 3.33324 6.36189 3.33325 6.80117V14.8654C3.33324 15.3047 3.33323 15.6837 3.35873 15.9958C3.38565 16.3253 3.44508 16.653 3.60574 16.9683C3.84542 17.4387 4.22787 17.8212 4.69828 18.0608C5.01359 18.2215 5.34128 18.2809 5.67073 18.3078C5.98287 18.3334 6.36183 18.3333 6.80112 18.3333H13.1987C13.638 18.3333 14.017 18.3334 14.3291 18.3078C14.6586 18.2809 14.9862 18.2215 15.3016 18.0608C15.772 17.8212 16.1544 17.4387 16.3941 16.9683C16.5548 16.653 16.6142 16.3253 16.6411 15.9958C16.6666 15.6837 16.6666 15.3047 16.6666 14.8654V6.80122C16.6666 6.36192 16.6666 5.98295 16.6411 5.6708C16.6142 5.34135 16.5548 5.01366 16.3941 4.69835C16.1544 4.22794 15.772 3.84549 15.3016 3.60581C15.0053 3.45486 14.6989 3.39351 14.3904 3.36421C14.2962 3.35525 14.1964 3.34891 14.0912 3.34441C13.9901 2.96297 13.7897 2.61126 13.5058 2.3274C13.0828 1.90433 12.509 1.66666 11.9107 1.66666H8.08918ZM12.4999 3.92258V4.99999H7.49992V3.92258C7.49992 3.7663 7.562 3.61642 7.67251 3.50591C7.78302 3.39541 7.9329 3.33332 8.08918 3.33332H11.9107C12.0669 3.33332 12.2168 3.39541 12.3273 3.50591C12.4378 3.61642 12.4999 3.7663 12.4999 3.92258ZM13.0892 10.5892C13.4146 10.2638 13.4146 9.73617 13.0892 9.41073C12.7637 9.0853 12.2361 9.0853 11.9107 9.41073L9.16659 12.1548L8.08918 11.0774C7.76374 10.752 7.2361 10.752 6.91066 11.0774C6.58523 11.4028 6.58523 11.9305 6.91066 12.2559L8.57733 13.9226C8.90277 14.248 9.43041 14.248 9.75584 13.9226L13.0892 10.5892Z" fill="currentColor"/>
</svg>
