<svg width="16" height="17" viewBox="0 0 16 17" fill="none" xmlns="http://www.w3.org/2000/svg">
<path fill-rule="evenodd" clip-rule="evenodd" d="M9.16667 0H4C2.59987 0 1.8998 0 1.36502 0.272484C0.894619 0.512167 0.512167 0.894619 0.272484 1.36502C0 1.8998 0 2.59987 0 4V12.6667C0 14.0668 0 14.7669 0.272484 15.3016C0.512167 15.772 0.894619 16.1545 1.36502 16.3942C1.8998 16.6667 2.59987 16.6667 4 16.6667H9.33333C9.63298 16.6667 9.90055 16.6667 10.1413 16.664C10.0498 16.4041 10 16.1245 10 15.8333C8.61929 15.8333 7.5 14.714 7.5 13.3333C7.5 11.9526 8.61929 10.8333 10 10.8333C10 9.45262 11.1193 8.33333 12.5 8.33333C12.7922 8.33333 13.0727 8.38346 13.3333 8.47559V4.16667L9.16667 0ZM8.33333 1.25V4.33333C8.33333 4.56669 8.33333 4.68337 8.37875 4.7725C8.41869 4.8509 8.48244 4.91464 8.56084 4.95459C8.64997 5 8.76664 5 9 5H12.0833L8.33333 1.25Z" fill="#2E90FA"/>
<path d="M13.3333 10.8333C13.3333 10.3731 12.9602 10 12.5 10C12.0398 10 11.6667 10.3731 11.6667 10.8333V12.5H10C9.53976 12.5 9.16667 12.8731 9.16667 13.3333C9.16667 13.7936 9.53976 14.1667 10 14.1667H11.6667V15.8333C11.6667 16.2936 12.0398 16.6667 12.5 16.6667C12.9602 16.6667 13.3333 16.2936 13.3333 15.8333V14.1667H15C15.4602 14.1667 15.8333 13.7936 15.8333 13.3333C15.8333 12.8731 15.4602 12.5 15 12.5H13.3333V10.8333Z" fill="#2E90FA"/>
</svg>
