<svg width="20" height="20" viewBox="0 0 20 20" fill="none" xmlns="http://www.w3.org/2000/svg">
<path fill-rule="evenodd" clip-rule="evenodd" d="M7.33325 1.66666H12.4999L16.6666 5.83332V10.4997C16.0415 10.1802 15.3334 9.99999 14.5833 9.99999C12.0519 9.99999 9.99992 12.052 9.99992 14.5833C9.99992 16.1335 10.7695 17.5039 11.9474 18.3333H7.33325C5.93312 18.3333 5.23305 18.3333 4.69828 18.0608C4.22787 17.8212 3.84542 17.4387 3.60574 16.9683C3.33325 16.4335 3.33325 15.7335 3.33325 14.3333V5.66666C3.33325 4.26653 3.33325 3.56646 3.60574 3.03168C3.84542 2.56128 4.22787 2.17882 4.69828 1.93914C5.23305 1.66666 5.93312 1.66666 7.33325 1.66666ZM11.6666 5.99999V2.91666L15.4166 6.66666H12.3333C12.0999 6.66666 11.9832 6.66666 11.8941 6.62124C11.8157 6.58129 11.7519 6.51755 11.712 6.43915C11.6666 6.35002 11.6666 6.23334 11.6666 5.99999ZM6.66659 6.66666C6.20635 6.66666 5.83325 7.03975 5.83325 7.49999C5.83325 7.96023 6.20635 8.33332 6.66659 8.33332H7.49992C7.96016 8.33332 8.33325 7.96023 8.33325 7.49999C8.33325 7.03975 7.96016 6.66666 7.49992 6.66666H6.66659ZM6.66659 9.99999C6.20635 9.99999 5.83325 10.3731 5.83325 10.8333C5.83325 11.2936 6.20635 11.6667 6.66659 11.6667H9.99992C10.4602 11.6667 10.8333 11.2936 10.8333 10.8333C10.8333 10.3731 10.4602 9.99999 9.99992 9.99999H6.66659ZM6.66659 13.3333C6.20635 13.3333 5.83325 13.7064 5.83325 14.1667C5.83325 14.6269 6.20635 15 6.66659 15H8.33325C8.79349 15 9.16659 14.6269 9.16659 14.1667C9.16659 13.7064 8.79349 13.3333 8.33325 13.3333H6.66659Z" fill="currentColor"/>
<path fill-rule="evenodd" clip-rule="evenodd" d="M11.6666 14.5833C11.6666 12.9725 12.9724 11.6667 14.5833 11.6667C16.1941 11.6667 17.4999 12.9725 17.4999 14.5833C17.4999 15.0856 17.3729 15.5583 17.1493 15.9709L18.0892 16.9107C18.4146 17.2362 18.4146 17.7638 18.0892 18.0892C17.7637 18.4147 17.2361 18.4147 16.9107 18.0892L15.9708 17.1494C15.5582 17.373 15.0856 17.5 14.5833 17.5C12.9724 17.5 11.6666 16.1942 11.6666 14.5833ZM14.5833 13.3333C13.8929 13.3333 13.3333 13.893 13.3333 14.5833C13.3333 15.2737 13.8929 15.8333 14.5833 15.8333C15.2736 15.8333 15.8333 15.2737 15.8333 14.5833C15.8333 13.893 15.2736 13.3333 14.5833 13.3333Z" fill="currentColor"/>
</svg>
