<svg width="20" height="20" viewBox="0 0 20 20" fill="none" xmlns="http://www.w3.org/2000/svg">
<path fill-rule="evenodd" clip-rule="evenodd" d="M12.917 1.6665L11.0837 1.6665C9.68353 1.6665 8.98346 1.6665 8.44868 1.93899C7.97828 2.17867 7.59583 2.56112 7.35614 3.03153C7.08366 3.56631 7.08366 4.26637 7.08366 5.6665V10.1665C7.08366 11.5666 7.08366 12.2667 7.35614 12.8015C7.59583 13.2719 7.97828 13.6543 8.44868 13.894C8.98346 14.1665 9.68353 14.1665 11.0837 14.1665H13.0837C14.4838 14.1665 15.1839 14.1665 15.7186 13.894C16.189 13.6543 16.5715 13.2719 16.8112 12.8015C17.0837 12.2667 17.0837 11.5666 17.0837 10.1665V5.83317L12.917 1.6665ZM12.7503 6.6665C12.517 6.6665 12.4003 6.6665 12.3112 6.62109C12.2328 6.58114 12.169 6.5174 12.1291 6.439C12.0837 6.34987 12.0837 6.23319 12.0837 5.99984V2.9165L15.8337 6.6665L12.7503 6.6665Z" fill="currentColor"/>
<path d="M6.25033 5.83317H5.41699C4.03628 5.83317 2.91699 6.95246 2.91699 8.33317L2.91699 15.8332C2.91699 17.2139 4.03628 18.3332 5.41699 18.3332H10.417C11.7977 18.3332 12.917 17.2139 12.917 15.8332V14.9998H11.5837C9.71682 14.9998 8.7834 14.9998 8.07036 14.6365C7.44315 14.3169 6.93322 13.807 6.61364 13.1798C6.25033 12.4668 6.25033 11.5333 6.25033 9.6665L6.25033 5.83317Z" fill="currentColor"/>
</svg>
