<svg width="20" height="20" viewBox="0 0 20 20" fill="none" xmlns="http://www.w3.org/2000/svg">
<path fill-rule="evenodd" clip-rule="evenodd" d="M8.33341 4.16667C8.33341 3.24619 9.07961 2.5 10.0001 2.5C10.9206 2.5 11.6667 3.24619 11.6667 4.16667C11.6667 4.67044 11.4432 5.122 11.09 5.42761L11.8856 7.28403C12.1262 7.84552 12.2857 8.21554 12.4295 8.48288C12.5707 8.74525 12.6512 8.81808 12.6893 8.84492C12.8584 8.96405 13.0658 9.01602 13.2711 8.99074C13.3173 8.98504 13.4227 8.9588 13.6709 8.79403C13.9238 8.62614 14.2389 8.37505 14.716 7.99344L15.2589 7.5591C15.095 7.30109 15.0001 6.99496 15.0001 6.66667C15.0001 5.74619 15.7463 5 16.6667 5C17.5872 5 18.3334 5.74619 18.3334 6.66667C18.3334 7.32705 17.9493 7.89772 17.3924 8.1675L15.82 16.8157C15.7479 17.212 15.4028 17.5 15.0001 17.5H5.00008C4.59734 17.5 4.25223 17.212 4.18019 16.8157L2.60778 8.1675C2.05082 7.89772 1.66675 7.32705 1.66675 6.66667C1.66675 5.74619 2.41294 5 3.33341 5C4.25389 5 5.00008 5.74619 5.00008 6.66667C5.00008 6.99496 4.90516 7.30109 4.74127 7.5591L5.2842 7.99344C5.76121 8.37505 6.07631 8.62614 6.32925 8.79403C6.57749 8.9588 6.68283 8.98504 6.72908 8.99074C6.93439 9.01602 7.14176 8.96405 7.31087 8.84492C7.34897 8.81808 7.42948 8.74525 7.57066 8.48288C7.71451 8.21554 7.87393 7.84552 8.11457 7.28403L8.91018 5.42761C8.55692 5.122 8.33341 4.67044 8.33341 4.16667Z" fill="currentColor"/>
</svg>
