<svg width="20" height="20" viewBox="0 0 20 20" fill="none" xmlns="http://www.w3.org/2000/svg">
<path fill-rule="evenodd" clip-rule="evenodd" d="M13.3191 3.21798C13.3319 3.37463 13.3331 3.55686 13.3332 3.74561L13.3332 18.3332H2.49984C2.0396 18.3332 1.66651 17.9601 1.66651 17.4998L1.66651 3.80658C1.66648 3.59627 1.66646 3.39145 1.68063 3.21798C1.69619 3.02749 1.73292 2.80271 1.84816 2.57652C2.00795 2.26292 2.26292 2.00795 2.57652 1.84816C2.80271 1.73292 3.02749 1.69619 3.21798 1.68063C3.39145 1.66646 3.59628 1.66648 3.80659 1.66651L11.1931 1.66651C11.4034 1.66648 11.6082 1.66646 11.7817 1.68063C11.9722 1.69619 12.197 1.73292 12.4232 1.84816C12.7368 2.00795 12.9917 2.26292 13.1515 2.57652C13.2668 2.80271 13.3035 3.02749 13.3191 3.21798ZM4.1665 4.99984C4.1665 4.5396 4.5396 4.1665 4.99984 4.1665H5.83317C6.29341 4.1665 6.6665 4.5396 6.6665 4.99984C6.6665 5.46007 6.29341 5.83317 5.83317 5.83317L4.99984 5.83317C4.5396 5.83317 4.1665 5.46007 4.1665 4.99984ZM4.99984 6.6665C4.5396 6.6665 4.1665 7.0396 4.1665 7.49984C4.1665 7.96007 4.5396 8.33317 4.99984 8.33317H5.83317C6.29341 8.33317 6.6665 7.96007 6.6665 7.49984C6.6665 7.0396 6.29341 6.6665 5.83317 6.6665L4.99984 6.6665ZM4.99984 9.1665C4.5396 9.1665 4.1665 9.5396 4.1665 9.99984C4.1665 10.4601 4.5396 10.8332 4.99984 10.8332H5.83317C6.29341 10.8332 6.6665 10.4601 6.6665 9.99984C6.6665 9.5396 6.29341 9.1665 5.83317 9.1665H4.99984ZM9.1665 4.1665C8.70627 4.1665 8.33317 4.5396 8.33317 4.99984C8.33317 5.46007 8.70627 5.83317 9.1665 5.83317H9.99984C10.4601 5.83317 10.8332 5.46007 10.8332 4.99984C10.8332 4.5396 10.4601 4.1665 9.99984 4.1665H9.1665ZM9.1665 6.6665C8.70627 6.6665 8.33317 7.0396 8.33317 7.49984C8.33317 7.96007 8.70627 8.33317 9.1665 8.33317H9.99984C10.4601 8.33317 10.8332 7.96007 10.8332 7.49984C10.8332 7.0396 10.4601 6.6665 9.99984 6.6665H9.1665ZM9.1665 9.1665C8.70627 9.1665 8.33317 9.5396 8.33317 9.99984C8.33317 10.4601 8.70627 10.8332 9.1665 10.8332H9.99984C10.4601 10.8332 10.8332 10.4601 10.8332 9.99984C10.8332 9.5396 10.4601 9.1665 9.99984 9.1665H9.1665ZM7.49984 12.4998C6.57936 12.4998 5.83317 13.246 5.83317 14.1665V16.6665H9.1665V14.1665C9.1665 13.246 8.42031 12.4998 7.49984 12.4998Z" fill="currentColor"/>
<path fill-rule="evenodd" clip-rule="evenodd" d="M17.4998 18.3332L14.1665 18.3332L14.1665 4.99984L16.1931 4.99984C16.4034 4.99981 16.6082 4.99979 16.7817 5.01396C16.9722 5.02953 17.197 5.06625 17.4232 5.1815C17.7368 5.34129 17.9917 5.59626 18.1515 5.90986C18.2668 6.13604 18.3035 6.36082 18.3191 6.55132C18.3332 6.72473 18.3332 6.92958 18.3332 7.13983L18.3332 17.4998C18.3332 17.9601 17.9601 18.3332 17.4998 18.3332ZM16.6665 8.33317C16.6665 8.79341 16.2934 9.1665 15.8332 9.1665C15.3729 9.1665 14.9998 8.79341 14.9998 8.33317C14.9998 7.87293 15.3729 7.49984 15.8332 7.49984C16.2934 7.49984 16.6665 7.87293 16.6665 8.33317ZM16.6665 10.8332C16.6665 11.2934 16.2934 11.6665 15.8332 11.6665C15.3729 11.6665 14.9998 11.2934 14.9998 10.8332C14.9998 10.3729 15.3729 9.99984 15.8332 9.99984C16.2934 9.99984 16.6665 10.3729 16.6665 10.8332ZM16.6665 13.3332C16.6665 13.7934 16.2934 14.1665 15.8332 14.1665C15.3729 14.1665 14.9998 13.7934 14.9998 13.3332C14.9998 12.8729 15.3729 12.4998 15.8332 12.4998C16.2934 12.4998 16.6665 12.8729 16.6665 13.3332Z" fill="currentColor"/>
</svg>
