<svg width="20" height="20" viewBox="0 0 20 20" fill="none" xmlns="http://www.w3.org/2000/svg">
<path fill-rule="evenodd" clip-rule="evenodd" d="M9.22334 1.66669H10.7765C10.9868 1.66666 11.1916 1.66664 11.3651 1.68081C11.5556 1.69638 11.7804 1.7331 12.0066 1.84835C12.3202 2.00814 12.5751 2.2631 12.7349 2.57671C12.8502 2.80289 12.8869 3.02767 12.9025 3.21817C12.9166 3.39164 12.9166 3.59647 12.9166 3.80679V5.35993C12.9166 5.57025 12.9166 5.77508 12.9025 5.94855C12.8869 6.13904 12.8502 6.36382 12.7349 6.59001C12.5751 6.90361 12.3202 7.15858 12.0066 7.31837C11.7804 7.43362 11.5556 7.47034 11.3651 7.4859C11.2073 7.4988 11.0235 7.49994 10.8333 7.50002V9.16669L13.6932 9.16669C13.9035 9.16666 14.1083 9.16664 14.2818 9.18081C14.4723 9.19638 14.6971 9.2331 14.9232 9.34835C15.2368 9.50813 15.4918 9.7631 15.6516 10.0767C15.7668 10.3029 15.8036 10.5277 15.8191 10.7182C15.8333 10.8916 15.8333 11.0965 15.8333 11.3068L15.8333 12.5C16.0235 12.5001 16.2073 12.5013 16.3651 12.5141C16.5556 12.5297 16.7804 12.5664 17.0066 12.6817C17.3202 12.8415 17.5751 13.0964 17.7349 13.41C17.8502 13.6362 17.8869 13.861 17.9025 14.0515C17.9166 14.225 17.9166 14.4298 17.9166 14.6401V16.1933C17.9166 16.4036 17.9166 16.6084 17.9025 16.7819C17.8869 16.9724 17.8502 17.1972 17.7349 17.4233C17.5751 17.7369 17.3202 17.9919 17.0066 18.1517C16.7804 18.267 16.5556 18.3037 16.3651 18.3192C16.1917 18.3334 15.9868 18.3334 15.7765 18.3334H14.2233C14.013 18.3334 13.8082 18.3334 13.6347 18.3192C13.4442 18.3037 13.2195 18.267 12.9933 18.1517C12.6797 17.9919 12.4247 17.7369 12.2649 17.4233C12.1497 17.1972 12.1129 16.9724 12.0974 16.7819C12.0832 16.6084 12.0832 16.4036 12.0833 16.1933V14.6401C12.0832 14.4298 12.0832 14.225 12.0974 14.0515C12.1129 13.861 12.1497 13.6362 12.2649 13.41C12.4247 13.0964 12.6797 12.8415 12.9933 12.6817C13.2195 12.5664 13.4442 12.5297 13.6347 12.5141C13.7926 12.5013 13.9763 12.5001 14.1666 12.5V11.3334C14.1666 11.0863 14.1659 10.951 14.158 10.8539C14.1577 10.85 14.1574 10.8464 14.157 10.8429C14.1536 10.8426 14.1499 10.8423 14.1461 10.8419C14.0489 10.834 13.9137 10.8334 13.6666 10.8334H6.33326C6.08615 10.8334 5.95094 10.834 5.85378 10.8419C5.84992 10.8423 5.84626 10.8426 5.8428 10.8429C5.84248 10.8464 5.84216 10.85 5.84184 10.8539C5.8339 10.951 5.83326 11.0863 5.83326 11.3334V12.5C6.02351 12.5001 6.20729 12.5013 6.36511 12.5141C6.55561 12.5297 6.78039 12.5664 7.00657 12.6817C7.32018 12.8415 7.57514 13.0964 7.73493 13.41C7.85018 13.6362 7.8869 13.861 7.90247 14.0515C7.91664 14.225 7.91662 14.4298 7.91659 14.6401V16.1933C7.91662 16.4036 7.91664 16.6084 7.90247 16.7819C7.8869 16.9724 7.85018 17.1972 7.73493 17.4233C7.57514 17.7369 7.32018 17.9919 7.00657 18.1517C6.78039 18.267 6.55561 18.3037 6.36511 18.3192C6.19165 18.3334 5.98683 18.3334 5.77652 18.3334H4.22333C4.01301 18.3334 3.80819 18.3334 3.63473 18.3192C3.44424 18.3037 3.21946 18.267 2.99327 18.1517C2.67967 17.9919 2.4247 17.7369 2.26491 17.4233C2.14966 17.1972 2.11294 16.9724 2.09738 16.7819C2.0832 16.6084 2.08323 16.4036 2.08325 16.1933V14.6401C2.08323 14.4298 2.0832 14.225 2.09738 14.0515C2.11294 13.861 2.14966 13.6362 2.26491 13.41C2.4247 13.0964 2.67967 12.8415 2.99327 12.6817C3.21946 12.5664 3.44424 12.5297 3.63473 12.5141C3.79255 12.5013 3.97633 12.5001 4.16659 12.5L4.16659 11.3068C4.16656 11.0965 4.16654 10.8916 4.18071 10.7182C4.19627 10.5277 4.233 10.3029 4.34825 10.0767C4.50803 9.7631 4.763 9.50813 5.07661 9.34835C5.30279 9.2331 5.52757 9.19638 5.71806 9.18081C5.89153 9.16664 6.09636 9.16666 6.30667 9.16669C6.31553 9.16669 6.32439 9.16669 6.33326 9.16669H9.16659V7.50002C8.97633 7.49994 8.79255 7.4988 8.63473 7.4859C8.44424 7.47034 8.21946 7.43362 7.99327 7.31837C7.67967 7.15858 7.4247 6.90361 7.26491 6.59001C7.14966 6.36382 7.11294 6.13904 7.09738 5.94855C7.0832 5.77508 7.08323 5.57026 7.08325 5.35994C7.08326 5.35109 7.08326 5.34223 7.08326 5.33336V3.83336C7.08326 3.82449 7.08326 3.81563 7.08325 3.80678C7.08323 3.59646 7.0832 3.39163 7.09738 3.21817C7.11294 3.02767 7.14966 2.80289 7.26491 2.57671C7.4247 2.2631 7.67967 2.00814 7.99327 1.84835C8.21946 1.7331 8.44424 1.69638 8.63473 1.68081C8.8082 1.66664 9.01302 1.66666 9.22334 1.66669Z" fill="currentColor"/>
</svg>
