<svg width="20" height="20" viewBox="0 0 20 20" fill="none" xmlns="http://www.w3.org/2000/svg">
<path d="M9.06001 3.4025C8.76964 3.33278 8.47068 3.33306 8.1316 3.33338L5.13463 3.33342C4.69534 3.3334 4.31637 3.33339 4.00423 3.3589C3.67477 3.38581 3.34709 3.44524 3.03177 3.6059C2.56137 3.84559 2.17892 4.22804 1.93923 4.69844C1.77857 5.01376 1.71914 5.34144 1.69222 5.6709C1.66672 5.98303 1.66673 6.36199 1.66675 6.80127V13.1989C1.66673 13.6382 1.66672 14.0171 1.69222 14.3293C1.71914 14.6587 1.77857 14.9864 1.93923 15.3017C2.17892 15.7721 2.56137 16.1546 3.03177 16.3943C3.34709 16.5549 3.67477 16.6144 4.00423 16.6413C4.31637 16.6668 4.69533 16.6668 5.13462 16.6668H14.8655C15.3048 16.6668 15.6838 16.6668 15.9959 16.6413C16.3254 16.6144 16.6531 16.5549 16.9684 16.3943C17.4388 16.1546 17.8212 15.7721 18.0609 15.3017C18.2216 14.9864 18.281 14.6587 18.3079 14.3293C18.3334 14.0171 18.3334 13.6382 18.3334 13.1989V8.46795C18.3334 8.02867 18.3334 7.6497 18.3079 7.33756C18.281 7.00811 18.2216 6.68043 18.0609 6.36511C17.8212 5.89471 17.4388 5.51226 16.9684 5.27257C16.6531 5.11191 16.3254 5.05248 15.9959 5.02556C15.6838 5.00006 15.3048 5.00007 14.8655 5.00009L11.938 5.00009C11.4907 5.00009 11.4028 4.99473 11.3292 4.97706C11.2442 4.95665 11.1629 4.92298 11.0884 4.87729C11.0238 4.83774 10.9579 4.77942 10.6416 4.46312L10.488 4.30943C10.2485 4.06944 10.0373 3.85785 9.78264 3.70182C9.55896 3.56475 9.3151 3.46374 9.06001 3.4025Z" fill="currentColor"/>
</svg>
