<svg width="20" height="20" viewBox="0 0 20 20" fill="none" xmlns="http://www.w3.org/2000/svg">
<path d="M10.0003 2.5C10.4606 2.5 10.8337 2.8731 10.8337 3.33333L10.8337 10.4882L11.9111 9.41074C12.2365 9.08531 12.7641 9.08531 13.0896 9.41074C13.415 9.73618 13.415 10.2638 13.0896 10.5893L10.5896 13.0893C10.2641 13.4147 9.73651 13.4147 9.41107 13.0893L6.91107 10.5893C6.58563 10.2638 6.58563 9.73618 6.91107 9.41074C7.23651 9.08531 7.76414 9.08531 8.08958 9.41074L9.16699 10.4882V3.33333C9.16699 2.8731 9.54009 2.5 10.0003 2.5Z" fill="currentColor"/>
<path fill-rule="evenodd" clip-rule="evenodd" d="M1.75218 12.6863C1.66699 13.0042 1.66699 13.3917 1.66699 14.1667C1.66699 14.9416 1.66699 15.3291 1.75218 15.647C1.98335 16.5098 2.65721 17.1836 3.51994 17.4148C3.83786 17.5 4.22535 17.5 5.00033 17.5H15.0003C15.7753 17.5 16.1628 17.5 16.4807 17.4148C17.3434 17.1836 18.0173 16.5098 18.2485 15.647C18.3337 15.3291 18.3337 14.9416 18.3337 14.1667C18.3337 13.3917 18.3337 13.0042 18.2485 12.6863C18.0173 11.8236 17.3434 11.1497 16.4807 10.9185C16.1628 10.8333 15.7753 10.8333 15.0003 10.8333L12.2631 13.5706C11.471 14.3626 11.075 14.7586 10.6184 14.907C10.2167 15.0375 9.78398 15.0375 9.38229 14.907C8.92563 14.7586 8.52962 14.3626 7.73758 13.5706L5.00033 10.8333C4.22535 10.8333 3.83786 10.8333 3.51994 10.9185C2.65721 11.1497 1.98335 11.8236 1.75218 12.6863ZM14.167 15C14.6272 15 15.0003 14.6269 15.0003 14.1667C15.0003 13.7064 14.6272 13.3333 14.167 13.3333C13.7068 13.3333 13.3337 13.7064 13.3337 14.1667C13.3337 14.6269 13.7068 15 14.167 15Z" fill="currentColor"/>
</svg>
