<svg width="20" height="20" viewBox="0 0 20 20" fill="none" xmlns="http://www.w3.org/2000/svg">
<path fill-rule="evenodd" clip-rule="evenodd" d="M8.08942 1.6665C7.49111 1.6665 6.91731 1.90418 6.49424 2.32725C6.21039 2.6111 6.00999 2.96282 5.90884 3.34426C5.80372 3.34876 5.70392 3.3551 5.60965 3.36406C5.30123 3.39336 4.99477 3.45471 4.69852 3.60565C4.22812 3.84534 3.84567 4.22779 3.60598 4.69819C3.44532 5.01351 3.38589 5.34119 3.35897 5.67065C3.33347 5.98278 3.33348 6.36174 3.3335 6.80102L3.3335 14.8653C3.33348 15.3046 3.33347 15.6836 3.35897 15.9957C3.38589 16.3251 3.44532 16.6528 3.60598 16.9681C3.84567 17.4386 4.22812 17.821 4.69852 18.0607C5.01384 18.2213 5.34152 18.2808 5.67097 18.3077C5.98311 18.3332 6.36208 18.3332 6.80136 18.3332H13.199C13.6383 18.3332 14.0172 18.3332 14.3294 18.3077C14.6588 18.2808 14.9865 18.2213 15.3018 18.0607C15.7722 17.821 16.1547 17.4386 16.3943 16.9681C16.555 16.6528 16.6144 16.3251 16.6414 15.9957C16.6669 15.6835 16.6668 15.3046 16.6668 14.8653V6.80107C16.6668 6.36177 16.6669 5.98279 16.6414 5.67065C16.6144 5.34119 16.555 5.01351 16.3943 4.69819C16.1547 4.22779 15.7722 3.84534 15.3018 3.60565C15.0056 3.45471 14.6991 3.39336 14.3907 3.36406C14.2964 3.3551 14.1966 3.34876 14.0915 3.34426C13.9903 2.96282 13.7899 2.6111 13.5061 2.32725C13.083 1.90418 12.5092 1.6665 11.9109 1.6665L8.08942 1.6665ZM12.5002 3.92243V4.99984L7.50017 4.99984V3.92243C7.50017 3.76615 7.56225 3.61627 7.67275 3.50576C7.78326 3.39525 7.93314 3.33317 8.08942 3.33317H11.9109C12.0672 3.33317 12.2171 3.39525 12.3276 3.50576C12.4381 3.61627 12.5002 3.76615 12.5002 3.92243ZM13.0894 10.5891C13.4149 10.2637 13.4149 9.73602 13.0894 9.41058C12.764 9.08514 12.2363 9.08514 11.9109 9.41058L9.16683 12.1547L8.08942 11.0772C7.76398 10.7518 7.23634 10.7518 6.91091 11.0772C6.58547 11.4027 6.58547 11.9303 6.91091 12.2558L8.57758 13.9224C8.90301 14.2479 9.43065 14.2479 9.75609 13.9224L13.0894 10.5891Z" fill="currentColor"/>
</svg>
