<svg width="17" height="15" viewBox="0 0 17 15" fill="none" xmlns="http://www.w3.org/2000/svg">
<path d="M8.92259 0.244078C8.59715 -0.0813592 8.06951 -0.0813592 7.74408 0.244078L5.24408 2.74408C4.91864 3.06951 4.91864 3.59715 5.24408 3.92259C5.56951 4.24803 6.09715 4.24803 6.42259 3.92259L7.5 2.84518V10C7.5 10.4602 7.8731 10.8333 8.33333 10.8333C8.79357 10.8333 9.16667 10.4602 9.16667 10V2.84518L10.2441 3.92259C10.5695 4.24803 11.0972 4.24803 11.4226 3.92259C11.748 3.59715 11.748 3.06951 11.4226 2.74408L8.92259 0.244078Z" fill="#00A652"/>
<path fill-rule="evenodd" clip-rule="evenodd" d="M5.83333 10V8.33333H3.33333C2.55836 8.33333 2.17087 8.33333 1.85295 8.41852C0.990222 8.64969 0.316353 9.32356 0.0851854 10.1863C0 10.5042 0 10.8917 0 11.6667C0 12.4416 0 12.8291 0.0851854 13.147C0.316353 14.0098 0.990222 14.6836 1.85295 14.9148C2.17087 15 2.55836 15 3.33333 15H13.3333C14.1083 15 14.4958 15 14.8137 14.9148C15.6764 14.6836 16.3503 14.0098 16.5815 13.147C16.6667 12.8291 16.6667 12.4416 16.6667 11.6667C16.6667 10.8917 16.6667 10.5042 16.5815 10.1863C16.3503 9.32356 15.6764 8.64969 14.8137 8.41852C14.4958 8.33333 14.1083 8.33333 13.3333 8.33333H10.8333V10C10.8333 11.3807 9.71405 12.5 8.33333 12.5C6.95262 12.5 5.83333 11.3807 5.83333 10ZM12.5 12.5C12.9602 12.5 13.3333 12.1269 13.3333 11.6667C13.3333 11.2064 12.9602 10.8333 12.5 10.8333C12.0398 10.8333 11.6667 11.2064 11.6667 11.6667C11.6667 12.1269 12.0398 12.5 12.5 12.5Z" fill="#00A652"/>
</svg>
