<svg width="16" height="16" viewBox="0 0 10.6667 13.3333" fill="none" xmlns="http://www.w3.org/2000/svg">
<path fill-rule="evenodd" clip-rule="evenodd" d="M7.33333 0H3.2C2.0799 0 1.51984 0 1.09202 0.217987C0.715695 0.409734 0.409734 0.715695 0.217987 1.09202C0 1.51984 0 2.07989 0 3.2V10.1333C0 11.2534 0 11.8135 0.217987 12.2413C0.409734 12.6176 0.715695 12.9236 1.09202 13.1153C1.51984 13.3333 2.0799 13.3333 3.2 13.3333H7.46667C8.58677 13.3333 9.14682 13.3333 9.57465 13.1153C9.95097 12.9236 10.2569 12.6176 10.4487 12.2413C10.6667 11.8135 10.6667 11.2534 10.6667 10.1333V3.33333L7.33333 0ZM6.66667 1V3.46667C6.66667 3.65335 6.66667 3.74669 6.703 3.818C6.73496 3.88072 6.78595 3.93171 6.84867 3.96367C6.91997 4 7.01332 4 7.2 4H9.66667L6.66667 1ZM2.66667 2C2.29848 2 2 2.29848 2 2.66667C2 3.03486 2.29848 3.33333 2.66667 3.33333H4C4.36819 3.33333 4.66667 3.03486 4.66667 2.66667C4.66667 2.29848 4.36819 2 4 2H2.66667ZM2.66667 4C2.29848 4 2 4.29848 2 4.66667C2 5.03486 2.29848 5.33333 2.66667 5.33333H4C4.36819 5.33333 4.66667 5.03486 4.66667 4.66667C4.66667 4.29848 4.36819 4 4 4H2.66667ZM4.5547 7.63023C4.40296 7.40262 4.12756 7.2908 3.8601 7.34821C3.59263 7.40562 3.38738 7.6206 3.3424 7.89043L3.10192 9.33337H2.66667C2.29848 9.33337 2 9.63184 2 10C2 10.3682 2.29848 10.6667 2.66667 10.6667H3.66667C3.99256 10.6667 4.27069 10.4311 4.32426 10.1096L4.38044 9.77255L4.77863 10.3698C4.90228 10.5553 5.11043 10.6667 5.33333 10.6667C5.55624 10.6667 5.76439 10.5553 5.88803 10.3698L6 10.2019L6.11197 10.3698C6.23561 10.5553 6.44377 10.6667 6.66667 10.6667H8C8.36819 10.6667 8.66667 10.3682 8.66667 10C8.66667 9.63184 8.36819 9.33337 8 9.33337H7.02346L6.5547 8.63023C6.43106 8.44477 6.2229 8.33337 6 8.33337C5.7771 8.33337 5.56894 8.44477 5.4453 8.63023L5.33333 8.79818L4.5547 7.63023Z" fill="currentColor"/>
</svg>
