<svg width="16" height="16" viewBox="0 0 16 16" fill="none" xmlns="http://www.w3.org/2000/svg">
<path fill-rule="evenodd" clip-rule="evenodd" d="M7.80949 1.39212C7.93596 1.37385 8.0644 1.37385 8.19086 1.39212C8.33662 1.41319 8.47225 1.46442 8.57994 1.50511L8.60879 1.51598L12.2704 2.889C12.6823 3.04276 13.044 3.1778 13.3225 3.42328C13.5662 3.63803 13.7539 3.90889 13.8694 4.21246C14.0015 4.55946 14.0009 4.94554 14.0003 5.38517L14.0002 7.99975C14.0002 9.76435 12.9261 11.2121 11.8092 12.2503C10.6781 13.3018 9.39208 14.0377 8.73584 14.3796L8.71056 14.3929C8.59596 14.4529 8.44751 14.5308 8.25478 14.5683C8.09673 14.599 7.90362 14.599 7.74557 14.5683C7.55285 14.5308 7.40439 14.4529 7.28979 14.3929L7.26451 14.3796C6.60827 14.0377 5.32227 13.3018 4.19115 12.2503C3.07421 11.2121 2.00018 9.76434 2.00018 7.99975L2.00009 5.38517C1.99945 4.94554 1.99889 4.55946 2.13094 4.21246C2.24645 3.90889 2.43416 3.63803 2.67783 3.42328C2.95638 3.1778 3.31808 3.04276 3.72994 2.88899L7.39156 1.51598L7.42042 1.50511C7.52811 1.46442 7.66373 1.41319 7.80949 1.39212ZM10.4714 7.13791C10.7318 6.87756 10.7318 6.45545 10.4714 6.1951C10.2111 5.93475 9.78895 5.93475 9.5286 6.1951L7.33333 8.39036L6.4714 7.52843C6.21106 7.26808 5.78894 7.26808 5.5286 7.52843C5.26825 7.78878 5.26825 8.21089 5.5286 8.47124L6.86193 9.80457C7.12228 10.0649 7.54439 10.0649 7.80474 9.80457L10.4714 7.13791Z" fill="currentColor"/>
</svg>
