<svg width="20" height="20" viewBox="0 0 20 20" fill="none" xmlns="http://www.w3.org/2000/svg">
<path d="M8.90276 2.2559C9.61282 2.0085 10.3857 2.00845 11.0958 2.25574C11.5567 2.41627 11.9369 2.70033 12.3083 3.04852C12.6675 3.38524 13.0735 3.83628 13.5676 4.38525L15.0003 5.97689V4.16653C15.0003 3.70629 15.3734 3.33319 15.8337 3.33319C16.2939 3.33319 16.667 3.70629 16.667 4.16653V7.82847L18.1197 9.44234C18.4276 9.78441 18.3999 10.3113 18.0579 10.6192C17.7158 10.9271 17.1889 10.8994 16.881 10.5574L16.667 10.3197V13.5343C16.667 14.2051 16.667 14.7587 16.6302 15.2097C16.5919 15.6781 16.5098 16.1087 16.3037 16.5132C15.9841 17.1404 15.4742 17.6503 14.847 17.9699C14.4425 18.176 14.0119 18.2581 13.5435 18.2964C13.0925 18.3332 12.5389 18.3332 11.8681 18.3332H11.667V14.6665C11.667 14.1998 11.667 13.9664 11.5762 13.7881C11.4963 13.6313 11.3688 13.5039 11.212 13.424C11.0337 13.3331 10.8004 13.3331 10.3337 13.3331H9.66699C9.20028 13.3331 8.96693 13.3331 8.78867 13.424C8.63187 13.5039 8.50438 13.6313 8.42449 13.7881C8.33366 13.9664 8.33366 14.1998 8.33366 14.6665V18.3332H8.13256C7.46176 18.3332 6.90814 18.3332 6.45714 18.2964C5.98873 18.2581 5.55814 18.176 5.1537 17.9699C4.52649 17.6503 4.01655 17.1404 3.69698 16.5132C3.4909 16.1087 3.40877 15.6781 3.37049 15.2097C3.33365 14.7587 3.33366 14.2051 3.33367 13.5343L3.33367 10.3196L3.11979 10.5573C2.81193 10.8994 2.28502 10.9272 1.94291 10.6193C1.60079 10.3115 1.57302 9.78455 1.88088 9.44244L6.43122 4.38576C6.92527 3.83671 7.33117 3.38563 7.6903 3.04886C8.06166 2.70061 8.44184 2.4165 8.90276 2.2559Z" fill="currentColor"/>
</svg>
