<svg width="20" height="20" viewBox="0 0 20 20" fill="none" xmlns="http://www.w3.org/2000/svg">
<path d="M18.3097 5.8335L1.69098 5.8335C1.72091 5.34323 1.78821 4.9954 1.93948 4.69852C2.17916 4.22811 2.56161 3.84566 3.03202 3.60598C3.5668 3.3335 4.26686 3.3335 5.66699 3.3335L14.3337 3.3335C15.7338 3.3335 16.4339 3.3335 16.9686 3.60598C17.439 3.84566 17.8215 4.22811 18.0612 4.69852C18.2124 4.9954 18.2797 5.34323 18.3097 5.8335Z" fill="currentColor"/>
<path fill-rule="evenodd" clip-rule="evenodd" d="M1.66699 7.50016L18.3337 7.50016V12.6668C18.3337 14.067 18.3337 14.767 18.0612 15.3018C17.8215 15.7722 17.439 16.1547 16.9686 16.3943C16.4339 16.6668 15.7338 16.6668 14.3337 16.6668H5.66699C4.26686 16.6668 3.5668 16.6668 3.03202 16.3943C2.56161 16.1547 2.17916 15.7722 1.93948 15.3018C1.66699 14.767 1.66699 14.067 1.66699 12.6668L1.66699 7.50016ZM7.39542 11.6668C8.3159 11.6668 9.06209 10.9206 9.06209 10.0002C9.06209 9.07969 8.3159 8.3335 7.39542 8.3335C6.47495 8.3335 5.72876 9.07969 5.72876 10.0002C5.72876 10.9206 6.47495 11.6668 7.39542 11.6668ZM10.3633 14.4707C10.3731 14.2826 10.2987 14.1737 10.15 13.9559C9.54979 13.077 8.53996 12.5002 7.39539 12.5002C6.25082 12.5002 5.24099 13.077 4.64078 13.9559C4.49205 14.1737 4.41769 14.2826 4.42745 14.4707C4.43455 14.6078 4.53754 14.8028 4.64669 14.886C4.79659 15.0002 4.97088 15.0002 5.31945 15.0002L9.47133 15.0002C9.8199 15.0002 9.99419 15.0002 10.1441 14.886C10.2532 14.8028 10.3562 14.6078 10.3633 14.4707ZM11.667 10.0002C11.667 9.53993 12.0401 9.16683 12.5003 9.16683L15.0003 9.16683C15.4606 9.16683 15.8337 9.53993 15.8337 10.0002C15.8337 10.4604 15.4606 10.8335 15.0003 10.8335L12.5003 10.8335C12.0401 10.8335 11.667 10.4604 11.667 10.0002ZM11.667 13.3335C11.667 12.8733 12.0401 12.5002 12.5003 12.5002H15.0003C15.4606 12.5002 15.8337 12.8733 15.8337 13.3335C15.8337 13.7937 15.4606 14.1668 15.0003 14.1668H12.5003C12.0401 14.1668 11.667 13.7937 11.667 13.3335Z" fill="currentColor"/>
</svg>
