<svg width="20" height="20" viewBox="0 0 20 20" fill="none" xmlns="http://www.w3.org/2000/svg">
<path fill-rule="evenodd" clip-rule="evenodd" d="M3.33301 8.49984C3.33301 4.74818 6.2958 1.6665 9.99967 1.6665C13.7035 1.6665 16.6663 4.74818 16.6663 8.49984C16.6663 10.4136 15.8213 12.0889 14.6772 13.6169C13.7222 14.8923 12.4999 16.1386 11.2839 17.3785C11.0542 17.6127 10.8246 17.8468 10.5972 18.0807C10.4403 18.2421 10.2248 18.3332 9.99967 18.3332C9.77459 18.3332 9.55908 18.2421 9.40218 18.0807C9.17472 17.8468 8.94518 17.6127 8.71541 17.3785C7.49946 16.1386 6.27711 14.8923 5.32219 13.6169C4.17806 12.0889 3.33301 10.4136 3.33301 8.49984ZM9.99967 10.8332C11.3804 10.8332 12.4997 9.71388 12.4997 8.33317C12.4997 6.95246 11.3804 5.83317 9.99967 5.83317C8.61896 5.83317 7.49967 6.95246 7.49967 8.33317C7.49967 9.71388 8.61896 10.8332 9.99967 10.8332Z" fill="currentColor"/>
</svg>
