<svg width="20" height="20" viewBox="0 0 20 20" fill="none" xmlns="http://www.w3.org/2000/svg">
<path fill-rule="evenodd" clip-rule="evenodd" d="M1.93899 4.69852C1.6665 5.2333 1.6665 5.93336 1.6665 7.3335L1.6665 12.6668C1.6665 14.067 1.6665 14.767 1.93899 15.3018C2.17867 15.7722 2.56112 16.1547 3.03153 16.3943C3.56631 16.6668 4.26637 16.6668 5.6665 16.6668H14.3332C15.7333 16.6668 16.4334 16.6668 16.9681 16.3943C17.4386 16.1547 17.821 15.7722 18.0607 15.3018C18.3332 14.767 18.3332 14.067 18.3332 12.6668V7.3335C18.3332 5.93336 18.3332 5.2333 18.0607 4.69852C17.821 4.22811 17.4386 3.84566 16.9681 3.60598C16.4334 3.3335 15.7333 3.3335 14.3332 3.3335L5.6665 3.3335C4.26637 3.3335 3.56631 3.3335 3.03153 3.60598C2.56112 3.84566 2.17867 4.22811 1.93899 4.69852ZM10.7452 7.1275C10.5945 6.82603 10.277 6.64504 9.94076 6.66894C9.60456 6.69283 9.31585 6.91689 9.20927 7.23665L8.04555 10.7278L7.74984 10.3335C7.59246 10.1237 7.34547 10.0002 7.08317 10.0002H3.33317V11.6668H6.6665L7.6665 13.0002C7.85248 13.2481 8.1607 13.3724 8.46666 13.3227C8.77261 13.2731 9.02572 13.0577 9.12374 12.7637L10.1542 9.6723L10.9211 11.2062C11.0623 11.4885 11.3509 11.6668 11.6665 11.6668H14.1665C14.6267 11.6668 14.9998 11.2937 14.9998 10.8335C14.9998 10.3733 14.6267 10.0002 14.1665 10.0002L12.1815 10.0002L10.7452 7.1275Z" fill="currentColor"/>
</svg>
