<svg width="20" height="20" viewBox="0 0 20 20" fill="none" xmlns="http://www.w3.org/2000/svg">
<path d="M9.1667 1.66667C6.86552 1.66667 5.00004 3.53215 5.00004 5.83334C5.00004 8.13453 6.86552 10 9.1667 10C11.4679 10 13.3334 8.13453 13.3334 5.83334C13.3334 3.53215 11.4679 1.66667 9.1667 1.66667Z" fill="currentColor"/>
<path d="M6.40345 10.8333L6.32505 10.8333C5.87182 10.8332 5.53581 10.833 5.23957 10.8867C3.87162 11.1343 2.801 12.2049 2.55335 13.5729C2.49973 13.8691 2.49985 14.2051 2.50002 14.6583L2.50004 16.1933C2.50001 16.4036 2.49999 16.6084 2.51416 16.7819C2.52972 16.9724 2.56645 17.1971 2.68169 17.4233C2.84148 17.7369 3.09645 17.9919 3.41005 18.1517C3.63624 18.2669 3.86102 18.3037 4.05151 18.3192C4.2249 18.3334 4.42971 18.3334 4.63993 18.3333H10.4167L9.94253 17.8818C8.94271 16.9296 8.90411 15.3471 9.85633 14.3473C10.736 13.4236 12.1537 13.3203 13.1528 14.0608L14.9425 12.3563C15.0144 12.2879 15.0892 12.2246 15.1666 12.1664C14.6715 11.5067 13.9373 11.0381 13.0892 10.8858C12.7953 10.833 12.4619 10.8332 12.0122 10.8333L11.9344 10.8333C11.7703 10.8333 11.6098 10.8818 11.473 10.9727C10.814 11.4109 10.0203 11.6667 9.1667 11.6667C8.31388 11.6667 7.52453 11.4113 6.86485 10.9727C6.72814 10.8818 6.56762 10.8333 6.40345 10.8333Z" fill="currentColor"/>
<path d="M17.2414 14.7701C17.5747 14.4527 17.5875 13.9252 17.2701 13.592C16.9527 13.2587 16.4252 13.2458 16.092 13.5632L13.1667 16.3492L12.2414 15.468C11.9081 15.1506 11.3806 15.1634 11.0632 15.4967C10.7458 15.83 10.7587 16.3575 11.092 16.6749L12.592 18.1035C12.9138 18.41 13.4195 18.41 13.7414 18.1035L17.2414 14.7701Z" fill="currentColor"/>
</svg>
