<svg width="20" height="20" viewBox="0 0 20 20" fill="none" xmlns="http://www.w3.org/2000/svg">
<path d="M9.60154 1.66667C7.30035 1.66667 5.43487 3.53215 5.43487 5.83334C5.43487 8.13452 7.30035 10 9.60154 10C11.9027 10 13.7682 8.13452 13.7682 5.83334C13.7682 3.53215 11.9027 1.66667 9.60154 1.66667Z" fill="currentColor"/>
<path d="M9.60154 10.8333C10.4452 10.8333 11.2563 10.9726 12.0131 11.2295C11.793 11.6018 11.6667 12.0361 11.6667 12.5C10.286 12.5 9.16667 13.6193 9.16667 15C9.16667 16.3807 10.286 17.5 11.6667 17.5C11.6667 17.7922 11.7168 18.0727 11.8089 18.3333H5.43487C4.43969 18.3333 3.9421 18.3333 3.40747 17.9638C3.04555 17.7137 2.60511 17.0156 2.53517 16.5812C2.43185 15.9396 2.56407 15.6624 2.82851 15.1081C4.03445 12.5801 6.614 10.8333 9.60154 10.8333Z" fill="currentColor"/>
<path d="M13.3333 12.5C13.3333 12.0398 13.7064 11.6667 14.1667 11.6667C14.6269 11.6667 15 12.0398 15 12.5V14.1667H16.6667C17.1269 14.1667 17.5 14.5398 17.5 15C17.5 15.4602 17.1269 15.8333 16.6667 15.8333H15V17.5C15 17.9602 14.6269 18.3333 14.1667 18.3333C13.7064 18.3333 13.3333 17.9602 13.3333 17.5V15.8333H11.6667C11.2064 15.8333 10.8333 15.4602 10.8333 15C10.8333 14.5398 11.2064 14.1667 11.6667 14.1667H13.3333V12.5Z" fill="currentColor"/>
</svg>
