<svg width="20" height="20" viewBox="0 0 20 20" fill="none" xmlns="http://www.w3.org/2000/svg">
<path d="M10.3724 2.58798C10.1377 2.47067 9.8616 2.47067 9.627 2.58798L1.29366 6.75464C1.01134 6.8958 0.833008 7.18436 0.833008 7.5C0.833008 7.81564 1.01134 8.1042 1.29366 8.24536L5.44973 10.3234V9.80853C5.44973 9.49289 5.62806 9.20434 5.91038 9.06318L9.62702 7.20486C10.0387 6.99903 10.5392 7.16589 10.7451 7.57754C10.9509 7.98919 10.784 8.48975 10.3724 8.69557L7.11639 10.3236V11.1567L9.627 12.412C9.8616 12.5293 10.1377 12.5293 10.3724 12.412L18.7057 8.24536C18.988 8.1042 19.1663 7.81564 19.1663 7.5C19.1663 7.18436 18.988 6.8958 18.7057 6.75464L10.3724 2.58798Z" fill="currentColor"/>
<path d="M5.44973 12.1867L3.33301 11.1283V13.7499C3.33301 14.0656 3.51134 14.3541 3.79366 14.4953L5.44973 15.3233V12.1867Z" fill="currentColor"/>
<path d="M7.11639 16.1566V13.02L8.88164 13.9027C9.58546 14.2546 10.4139 14.2546 11.1177 13.9027L16.6663 11.1283V13.7499C16.6663 14.0656 16.488 14.3541 16.2057 14.4953L10.3724 17.4119C10.1377 17.5292 9.8616 17.5292 9.627 17.4119L7.11639 16.1566Z" fill="currentColor"/>
<path d="M5.44971 17.5004L5.44973 15.3233L7.11639 16.1566L7.11637 17.5004C7.11637 17.9606 6.74328 18.3337 6.28304 18.3337C5.8228 18.3337 5.44971 17.9606 5.44971 17.5004Z" fill="currentColor"/>
</svg>
