<svg width="20" height="20" viewBox="0 0 20 20" fill="none" xmlns="http://www.w3.org/2000/svg">
<path fill-rule="evenodd" clip-rule="evenodd" d="M6.30684 1.66669C6.09652 1.66666 5.89169 1.66664 5.71823 1.68081C5.52773 1.69638 5.30295 1.7331 5.07677 1.84835C4.76316 2.00814 4.5082 2.2631 4.34841 2.57671C4.23316 2.80289 4.19644 3.02767 4.18087 3.21817C4.1667 3.39163 4.16673 3.59645 4.16675 3.80677L4.16675 17.5C4.16675 17.9603 4.53985 18.3334 5.00009 18.3334H15.0001C15.4603 18.3334 15.8334 17.9603 15.8334 17.5L15.8334 3.80679C15.8334 3.59647 15.8335 3.39164 15.8193 3.21817C15.8037 3.02767 15.767 2.80289 15.6518 2.57671C15.492 2.2631 15.237 2.00814 14.9234 1.84835C14.6972 1.7331 14.4724 1.69638 14.2819 1.68081C14.1085 1.66664 13.9037 1.66666 13.6933 1.66669L6.30684 1.66669ZM6.66675 5.00002C6.66675 4.53978 7.03984 4.16669 7.50008 4.16669H8.33341C8.79365 4.16669 9.16675 4.53978 9.16675 5.00002C9.16675 5.46026 8.79365 5.83335 8.33341 5.83335H7.50008C7.03984 5.83335 6.66675 5.46026 6.66675 5.00002ZM10.8334 5.00002C10.8334 4.53978 11.2065 4.16669 11.6667 4.16669H12.5001C12.9603 4.16669 13.3334 4.53978 13.3334 5.00002C13.3334 5.46026 12.9603 5.83335 12.5001 5.83335H11.6667C11.2065 5.83335 10.8334 5.46026 10.8334 5.00002ZM6.66675 7.50002C6.66675 7.03978 7.03984 6.66669 7.50008 6.66669H8.33341C8.79365 6.66669 9.16675 7.03978 9.16675 7.50002C9.16675 7.96026 8.79365 8.33335 8.33341 8.33335H7.50008C7.03984 8.33335 6.66675 7.96026 6.66675 7.50002ZM10.8334 7.50002C10.8334 7.03978 11.2065 6.66669 11.6667 6.66669H12.5001C12.9603 6.66669 13.3334 7.03978 13.3334 7.50002C13.3334 7.96026 12.9603 8.33335 12.5001 8.33335H11.6667C11.2065 8.33335 10.8334 7.96026 10.8334 7.50002ZM6.66675 10C6.66675 9.53978 7.03984 9.16669 7.50008 9.16669H8.33341C8.79365 9.16669 9.16675 9.53978 9.16675 10C9.16675 10.4603 8.79365 10.8334 8.33341 10.8334H7.50008C7.03984 10.8334 6.66675 10.4603 6.66675 10ZM10.8334 10C10.8334 9.53978 11.2065 9.16669 11.6667 9.16669H12.5001C12.9603 9.16669 13.3334 9.53978 13.3334 10C13.3334 10.4603 12.9603 10.8334 12.5001 10.8334H11.6667C11.2065 10.8334 10.8334 10.4603 10.8334 10ZM10.0001 12.5C9.07961 12.5 8.33341 13.2462 8.33341 14.1667V16.6667H11.6667V14.1667C11.6667 13.2462 10.9206 12.5 10.0001 12.5Z" fill="currentColor"/>
</svg>
