<svg width="20" height="20" viewBox="0 0 20 20" fill="none" xmlns="http://www.w3.org/2000/svg">
<path fill-rule="evenodd" clip-rule="evenodd" d="M10.8332 1.6665L9.1665 1.6665C7.34997 1.6665 5.83157 3.184 5.83317 5.00119C5.43695 5.00391 5.09066 5.0121 4.78998 5.03667C4.32157 5.07494 3.89098 5.15707 3.48654 5.36315C2.85933 5.68273 2.34939 6.19266 2.02982 6.81987C2.02131 6.83656 2.01302 6.85329 2.00494 6.87007L6.09146 10.1393C6.52361 10.485 6.65191 10.5826 6.78523 10.6507C6.91896 10.719 7.06131 10.769 7.20842 10.7992C7.35507 10.8293 7.51623 10.8332 8.06966 10.8332L11.9301 10.8332C12.4835 10.8332 12.6447 10.8293 12.7913 10.7992C12.9384 10.769 13.0808 10.719 13.2145 10.6507C13.3478 10.5826 13.4761 10.485 13.9083 10.1393L17.9948 6.8701C17.9867 6.85331 17.9784 6.83657 17.9699 6.81987C17.6503 6.19266 17.1403 5.68273 16.5131 5.36315C16.1087 5.15707 15.6781 5.07494 15.2097 5.03667C14.909 5.0121 14.5627 5.00256 14.1665 4.99984C14.1665 3.15889 12.6741 1.6665 10.8332 1.6665ZM12.4998 4.99984L7.49984 4.99984C7.49984 4.07936 8.24603 3.33317 9.1665 3.33317H10.8332C11.7536 3.33317 12.4998 4.07936 12.4998 4.99984Z" fill="currentColor"/>
<path d="M18.3258 8.73962L14.8934 11.4856C14.5416 11.7672 14.2757 11.9801 13.9728 12.1349C13.7053 12.2716 13.4206 12.3714 13.1264 12.4318C12.7931 12.5002 12.4525 12.5001 12.0019 12.4999L7.99782 12.4999C7.54724 12.5001 7.20663 12.5002 6.87334 12.4318C6.57914 12.3714 6.29444 12.2716 6.02698 12.1349C5.724 11.9801 5.45812 11.7672 5.10639 11.4856L1.67385 8.73957C1.66649 9.05453 1.6665 9.40661 1.6665 9.79874L1.6665 13.5343C1.66649 14.2051 1.66649 14.7587 1.70333 15.2097C1.7416 15.6781 1.82374 16.1087 2.02982 16.5131C2.34939 17.1403 2.85933 17.6503 3.48654 17.9699C3.89098 18.1759 4.32157 18.2581 4.78998 18.2963C5.24097 18.3332 5.7946 18.3332 6.4654 18.3332H13.5343C14.2051 18.3332 14.7587 18.3332 15.2097 18.2963C15.6781 18.2581 16.1087 18.1759 16.5131 17.9699C17.1403 17.6503 17.6503 17.1403 17.9699 16.5131C18.1759 16.1087 18.2581 15.6781 18.2963 15.2097C18.3332 14.7587 18.3332 14.2051 18.3332 13.5343V9.79873C18.3332 9.40663 18.3332 9.05456 18.3258 8.73962Z" fill="currentColor"/>
</svg>
