<svg width="20" height="20" viewBox="0 0 20 20" fill="none" xmlns="http://www.w3.org/2000/svg">
<path fill-rule="evenodd" clip-rule="evenodd" d="M11.0358 2.01616C10.3778 1.71662 9.62227 1.71662 8.96424 2.01616C8.49692 2.22889 8.16895 2.6195 7.89295 3.02791C7.61806 3.43467 7.31711 3.98188 6.95309 4.64377L2.25717 13.1818C1.91599 13.8021 1.63232 14.3178 1.44604 14.7448C1.2575 15.1769 1.11113 15.6401 1.16989 16.1305C1.25332 16.8268 1.62538 17.4561 2.19529 17.8648C2.59665 18.1526 3.07306 18.2475 3.54257 18.2906C4.00645 18.3331 4.59503 18.3331 5.30296 18.3331H14.6971C15.405 18.3331 15.9936 18.3331 16.4575 18.2906C16.927 18.2475 17.4034 18.1526 17.8047 17.8648C18.3746 17.4561 18.7467 16.8268 18.8301 16.1305C18.8889 15.6401 18.7425 15.1769 18.554 14.7448C18.3677 14.3178 18.0841 13.8022 17.7429 13.1819L13.0469 4.64375C12.6829 3.98187 12.382 3.43467 12.1071 3.02791C11.8311 2.6195 11.5031 2.22889 11.0358 2.01616ZM10.8334 8.3331C10.8334 7.87286 10.4603 7.49977 10 7.49977C9.53978 7.49977 9.16669 7.87286 9.16669 8.3331L9.16669 11.6664C9.16669 12.1267 9.53978 12.4998 10 12.4998C10.4603 12.4998 10.8334 12.1267 10.8334 11.6664L10.8334 8.3331ZM10 13.3331C9.53978 13.3331 9.16669 13.7062 9.16669 14.1664C9.16669 14.6267 9.53978 14.9998 10 14.9998H10.0084C10.4686 14.9998 10.8417 14.6267 10.8417 14.1664C10.8417 13.7062 10.4686 13.3331 10.0084 13.3331H10Z" fill="currentColor"/>
</svg>
