<svg width="17" height="15" viewBox="0 0 17 15" fill="none" xmlns="http://www.w3.org/2000/svg">
<path d="M1.66667 3.33333C1.66667 1.49238 3.15905 0 5 0C6.84095 0 8.33333 1.49238 8.33333 3.33333C8.33333 5.17428 6.84095 6.66667 5 6.66667C3.15905 6.66667 1.66667 5.17428 1.66667 3.33333Z" fill="#D7A000"/>
<path d="M0 12.5C0 9.73858 2.23858 7.5 5 7.5C7.76142 7.5 10 9.73858 10 12.5V14.1667C10 14.6269 9.6269 15 9.16667 15H0.833333C0.373096 15 0 14.6269 0 14.1667V12.5Z" fill="#D7A000"/>
<path d="M11.6667 2.5C10.286 2.5 9.16667 3.61929 9.16667 5C9.16667 6.38071 10.286 7.5 11.6667 7.5C13.0474 7.5 14.1667 6.38071 14.1667 5C14.1667 3.61929 13.0474 2.5 11.6667 2.5Z" fill="#D7A000"/>
<path d="M11.6667 8.33333C10.9029 8.33333 10.1816 8.51406 9.53787 8.83419C10.3481 9.8359 10.8334 11.1113 10.8334 12.5V14.1667C10.8334 14.4702 10.7522 14.7549 10.6104 15H15.8333C16.2936 15 16.6667 14.6269 16.6667 14.1667V13.3333C16.6667 10.3984 14.4077 8.33333 11.6667 8.33333Z" fill="#D7A000"/>
</svg>
