<svg width="15" height="17" viewBox="0 0 15 17" fill="none" xmlns="http://www.w3.org/2000/svg">
<path d="M5.66667 0H6.66667V16.6667H5.66667C4.26654 16.6667 3.56647 16.6667 3.03169 16.3942C2.56129 16.1545 2.17883 15.772 1.93915 15.3016C1.71381 14.8594 1.67482 14.3041 1.66808 13.3333H0.833333C0.373096 13.3333 0 12.9602 0 12.5C0 12.0398 0.373096 11.6667 0.833333 11.6667H1.66667V9.16667H0.833333C0.373096 9.16667 0 8.79357 0 8.33333C0 7.8731 0.373096 7.5 0.833333 7.5H1.66667V5H0.833333C0.373096 5 0 4.6269 0 4.16667C0 3.70643 0.373096 3.33333 0.833333 3.33333H1.66808C1.67482 2.36256 1.71381 1.80727 1.93915 1.36502C2.17883 0.894619 2.56129 0.512167 3.03169 0.272484C3.56647 0 4.26654 0 5.66667 0Z" fill="#5550E5"/>
<path d="M11 16.6667H8.33333V0H11C12.4001 0 13.1002 0 13.635 0.272484C14.1054 0.512167 14.4878 0.894619 14.7275 1.36502C15 1.8998 15 2.59987 15 4V12.6667C15 14.0668 15 14.7669 14.7275 15.3016C14.4878 15.772 14.1054 16.1545 13.635 16.3942C13.1002 16.6667 12.4001 16.6667 11 16.6667Z" fill="#5550E5"/>
</svg>
