<svg width="20" height="20" viewBox="0 0 20 20" fill="none" xmlns="http://www.w3.org/2000/svg">
<path fill-rule="evenodd" clip-rule="evenodd" d="M8.08918 1.66667C7.49087 1.66667 6.91707 1.90435 6.494 2.32742C6.21014 2.61127 6.00974 2.96298 5.9086 3.34443C5.80348 3.34892 5.70368 3.35527 5.60941 3.36422C5.30099 3.39353 4.99452 3.45488 4.69828 3.60582C4.22787 3.84551 3.84542 4.22796 3.60574 4.69836C3.44508 5.01368 3.38565 5.34136 3.35873 5.67081C3.33323 5.98295 3.33324 6.36191 3.33325 6.80119V14.8655C3.33324 15.3047 3.33323 15.6837 3.35873 15.9959C3.38565 16.3253 3.44508 16.653 3.60574 16.9683C3.84542 17.4387 4.22787 17.8212 4.69828 18.0609C5.01359 18.2215 5.34128 18.2809 5.67073 18.3079C5.98287 18.3334 6.36183 18.3334 6.80112 18.3333H13.1987C13.638 18.3334 14.017 18.3334 14.3291 18.3079C14.6586 18.2809 14.9862 18.2215 15.3016 18.0609C15.772 17.8212 16.1544 17.4387 16.3941 16.9683C16.5548 16.653 16.6142 16.3253 16.6411 15.9959C16.6666 15.6837 16.6666 15.3048 16.6666 14.8655V6.80124C16.6666 6.36198 16.6666 5.98294 16.6411 5.67081C16.6142 5.34136 16.5548 5.01368 16.3941 4.69836C16.1544 4.22796 15.772 3.84551 15.3016 3.60582C15.0053 3.45488 14.6989 3.39353 14.3904 3.36422C14.2962 3.35527 14.1964 3.34892 14.0912 3.34443C13.9901 2.96298 13.7897 2.61127 13.5058 2.32742C13.0828 1.90435 12.509 1.66667 11.9107 1.66667H8.08918ZM12.4999 3.92259V5.00001H7.49992V3.92259C7.49992 3.76631 7.562 3.61643 7.67251 3.50593C7.78302 3.39542 7.9329 3.33334 8.08918 3.33334H11.9107C12.0669 3.33334 12.2168 3.39542 12.3273 3.50593C12.4378 3.61643 12.4999 3.76631 12.4999 3.92259ZM5.83325 9.16667C5.83325 8.70643 6.20635 8.33334 6.66659 8.33334H9.99992C10.4602 8.33334 10.8333 8.70643 10.8333 9.16667C10.8333 9.62691 10.4602 10 9.99992 10H6.66659C6.20635 10 5.83325 9.62691 5.83325 9.16667ZM5.83325 12.5C5.83325 12.0398 6.20635 11.6667 6.66659 11.6667H13.3333C13.7935 11.6667 14.1666 12.0398 14.1666 12.5C14.1666 12.9602 13.7935 13.3333 13.3333 13.3333H6.66659C6.20635 13.3333 5.83325 12.9602 5.83325 12.5Z" fill="currentColor"/>
</svg>
