<svg width="20" height="20" viewBox="0 0 20 20" fill="none" xmlns="http://www.w3.org/2000/svg">
<path fill-rule="evenodd" clip-rule="evenodd" d="M5.13463 2.5H14.8655C15.3048 2.49999 15.6838 2.49998 15.9959 2.52548C16.3254 2.55239 16.6531 2.61182 16.9684 2.77249C17.4388 3.01217 17.8212 3.39462 18.0609 3.86503C18.2216 4.18034 18.281 4.50803 18.3079 4.83748C18.3334 5.14962 18.3334 5.52858 18.3334 5.96786V14.0321C18.3334 14.4714 18.3334 14.8504 18.3079 15.1625C18.281 15.492 18.2216 15.8197 18.0609 16.135C17.8212 16.6054 17.4388 16.9878 16.9684 17.2275C16.6531 17.3882 16.3254 17.4476 15.9959 17.4745C15.6838 17.5 15.3048 17.5 14.8656 17.5H5.13461C4.69533 17.5 4.31637 17.5 4.00423 17.4745C3.67477 17.4476 3.34709 17.3882 3.03177 17.2275C2.56137 16.9878 2.17892 16.6054 1.93923 16.135C1.77857 15.8197 1.71914 15.492 1.69223 15.1625C1.66672 14.8504 1.66674 14.4714 1.66675 14.0322V5.96785C1.66674 5.52859 1.66672 5.14961 1.69223 4.83748C1.71914 4.50803 1.77857 4.18034 1.93923 3.86503C2.17892 3.39462 2.56137 3.01217 3.03177 2.77249C3.34709 2.61182 3.67477 2.55239 4.00423 2.52548C4.31636 2.49998 4.69537 2.49999 5.13463 2.5ZM5.83342 9.16667C5.83342 8.70643 5.46033 8.33334 5.00009 8.33334C4.53985 8.33334 4.16676 8.70643 4.16676 9.16667L4.16676 11.5321C4.16674 11.9714 4.16673 12.3504 4.19223 12.6625C4.21915 12.992 4.27858 13.3197 4.43924 13.635C4.67892 14.1054 5.06138 14.4878 5.53178 14.7275C5.8471 14.8882 6.17478 14.9476 6.50423 14.9745C6.81638 15 7.19537 15 7.63466 15H8.33342C8.79366 15 9.16676 14.6269 9.16676 14.1667C9.16676 13.7064 8.79366 13.3333 8.33342 13.3333H7.66676C7.1863 13.3333 6.87607 13.3327 6.63995 13.3134C6.41357 13.2949 6.32964 13.2635 6.28843 13.2425C6.13163 13.1626 6.00415 13.0351 5.92425 12.8783C5.90326 12.8371 5.87186 12.7532 5.85336 12.5268C5.84912 12.4749 5.84578 12.4194 5.84315 12.3593C6.0713 12.4351 6.3014 12.4665 6.53144 12.4822C6.79248 12.5 7.10791 12.5 7.47343 12.5H7.50009C7.96033 12.5 8.33342 12.1269 8.33342 11.6667C8.33342 11.2064 7.96033 10.8333 7.50009 10.8333C7.1004 10.8333 6.84237 10.8329 6.64489 10.8194C6.45489 10.8064 6.38253 10.7843 6.34785 10.7699C6.14367 10.6853 5.98144 10.5231 5.89686 10.3189C5.88249 10.2842 5.86031 10.2119 5.84735 10.0219C5.83388 9.82439 5.83342 9.56636 5.83342 9.16667ZM10.0001 8.33334C9.53985 8.33334 9.16676 8.70643 9.16676 9.16667C9.16676 9.62691 9.53985 10 10.0001 10H15.0001C15.4603 10 15.8334 9.62691 15.8334 9.16667C15.8334 8.70643 15.4603 8.33334 15.0001 8.33334H10.0001ZM10.0001 11.6667C10.0001 11.2064 10.3732 10.8333 10.8334 10.8333H15.0001C15.4603 10.8333 15.8334 11.2064 15.8334 11.6667C15.8334 12.1269 15.4603 12.5 15.0001 12.5H10.8334C10.3732 12.5 10.0001 12.1269 10.0001 11.6667ZM4.25758 5.45501C4.16675 5.63327 4.16675 5.86662 4.16675 6.33333V6.66667H15.8334V6.33333C15.8334 5.86662 15.8334 5.63327 15.7426 5.45501C15.6627 5.29821 15.5352 5.17072 15.3784 5.09083C15.2001 5 14.9668 5 14.5001 5H5.50008C5.03337 5 4.80002 5 4.62176 5.09083C4.46495 5.17072 4.33747 5.29821 4.25758 5.45501Z" fill="currentColor"/>
</svg>
