<svg width="20" height="20" viewBox="0 0 20 20" fill="none" xmlns="http://www.w3.org/2000/svg">
<path d="M3.33317 5.83333C3.33317 3.99238 4.82555 2.5 6.6665 2.5C8.50745 2.5 9.99984 3.99238 9.99984 5.83333C9.99984 7.67428 8.50745 9.16667 6.6665 9.16667C4.82555 9.16667 3.33317 7.67428 3.33317 5.83333Z" fill="currentColor"/>
<path d="M1.6665 15C1.6665 12.2386 3.90508 10 6.6665 10C9.42793 10 11.6665 12.2386 11.6665 15V16.6667C11.6665 17.1269 11.2934 17.5 10.8332 17.5H2.49984C2.0396 17.5 1.6665 17.1269 1.6665 16.6667L1.6665 15Z" fill="currentColor"/>
<path d="M13.3332 5C11.9525 5 10.8332 6.11929 10.8332 7.5C10.8332 8.88071 11.9525 10 13.3332 10C14.7139 10 15.8332 8.88071 15.8332 7.5C15.8332 6.11929 14.7139 5 13.3332 5Z" fill="currentColor"/>
<path d="M13.3332 10.8333C12.5694 10.8333 11.8482 11.0141 11.2044 11.3342C12.0146 12.3359 12.4999 13.6113 12.4999 15V16.6667C12.4999 16.9702 12.4187 17.2549 12.2769 17.5H17.4998C17.9601 17.5 18.3332 17.1269 18.3332 16.6667V15.8333C18.3332 12.8984 16.0742 10.8333 13.3332 10.8333Z" fill="currentColor"/>
</svg>
