<svg width="16" height="16" viewBox="0 0 16 16" fill="none" xmlns="http://www.w3.org/2000/svg">
<path fill-rule="evenodd" clip-rule="evenodd" d="M4.66634 1.3335C5.03453 1.3335 5.33301 1.63197 5.33301 2.00016V2.66683L10.6663 2.66683V2.00016C10.6663 1.63197 10.9648 1.3335 11.333 1.3335C11.7012 1.3335 11.9997 1.63197 11.9997 2.00016V2.66685C12.3057 2.66703 12.5725 2.66892 12.7964 2.68721C13.0599 2.70874 13.3221 2.75629 13.5743 2.88482C13.9506 3.07656 14.2566 3.38252 14.4484 3.75885C14.5769 4.0111 14.6244 4.27325 14.646 4.53681C14.6664 4.78652 14.6664 5.08969 14.6663 5.44112L14.6663 11.8925C14.6664 12.244 14.6664 12.5471 14.646 12.7968C14.6244 13.0604 14.5769 13.3226 14.4484 13.5748C14.2566 13.9511 13.9506 14.2571 13.5743 14.4488C13.3221 14.5774 13.0599 14.6249 12.7964 14.6464C12.5466 14.6669 12.2435 14.6668 11.8921 14.6668L4.1073 14.6668C3.75587 14.6668 3.4527 14.6669 3.20299 14.6464C2.93943 14.6249 2.67728 14.5774 2.42503 14.4488C2.04871 14.2571 1.74274 13.9511 1.551 13.5748C1.42247 13.3226 1.37492 13.0604 1.35339 12.7968C1.33299 12.5471 1.333 12.244 1.33301 11.8926L1.33301 5.44111C1.333 5.0897 1.33299 4.78651 1.35339 4.53681C1.37492 4.27325 1.42247 4.0111 1.551 3.75885C1.74274 3.38252 2.0487 3.07656 2.42503 2.88482C2.67728 2.75629 2.93943 2.70874 3.20299 2.68721C3.42684 2.66892 3.69365 2.66703 3.99968 2.66685V2.00016C3.99968 1.63197 4.29815 1.3335 4.66634 1.3335ZM9.98496 6.66683C9.98496 7.77132 9.08945 8.66683 7.98496 8.66683C6.88046 8.66683 5.98496 7.77132 5.98496 6.66683C5.98496 5.56234 6.88046 4.66683 7.98496 4.66683C9.08945 4.66683 9.98496 5.56234 9.98496 6.66683ZM11.6095 11.4771C10.9406 10.2028 9.60453 9.3335 8.06552 9.3335C6.52651 9.3335 5.19046 10.2028 4.52155 11.4771C4.38119 11.7445 4.31101 11.8782 4.33912 12.0885C4.35978 12.2431 4.48731 12.454 4.61459 12.5442C4.78774 12.6668 4.98563 12.6668 5.38141 12.6668L10.7496 12.6668C11.1454 12.6668 11.3433 12.6668 11.5165 12.5442C11.6437 12.454 11.7713 12.2431 11.7919 12.0885C11.82 11.8782 11.7499 11.7445 11.6095 11.4771Z" fill="currentColor"/>
</svg>
