<svg width="20" height="20" viewBox="0 0 20 20" fill="none" xmlns="http://www.w3.org/2000/svg">
<path d="M14.2899 3.11518C10.839 1.58463 6.7161 3.00145 5.08427 6.3508C4.98534 6.55385 4.97307 6.78836 5.05027 7.00063C5.12747 7.21289 5.28753 7.38472 5.49379 7.47678L7.90044 8.55088C8.0087 8.28953 8.12671 8.0273 8.25423 7.76554L8.25347 7.76517C9.00627 6.22004 9.98302 4.91238 10.9856 4.05438C11.486 3.62615 12.0223 3.2847 12.568 3.09847C13.1121 2.91282 13.719 2.86601 14.2899 3.11518Z" fill="currentColor"/>
<path d="M11.776 10.2806L12.6036 10.6499C12.7436 10.4065 12.8789 10.1519 13.0079 9.88712L13.0071 9.88675C13.683 8.49948 14.0227 7.16907 14.0559 6.16033C14.0725 5.65463 14.0107 5.27231 13.9106 5.01447C13.8136 4.76437 13.702 4.67785 13.6259 4.64391C13.5449 4.60774 13.3878 4.57977 13.1063 4.67583C12.8216 4.77298 12.467 4.98029 12.0693 5.32066C11.2757 5.9998 10.4274 7.10855 9.75195 8.49479L9.75271 8.49516C9.63218 8.74255 9.52234 8.98813 9.42302 9.23041L10.2532 9.60091L10.2528 9.60174L11.7756 10.2814L11.776 10.2806Z" fill="currentColor"/>
<path d="M11.4104 11.031L9.88756 10.3513L7.21668 15.8333H2.50008C2.03984 15.8333 1.66675 16.2064 1.66675 16.6667C1.66675 17.1269 2.03984 17.5 2.50008 17.5H17.5001C17.9603 17.5 18.3334 17.1269 18.3334 16.6667C18.3334 16.2064 17.9603 15.8333 17.5001 15.8333H9.07063L11.4104 11.031Z" fill="currentColor"/>
<path d="M14.1326 11.3323L16.5857 12.4271C16.996 12.6103 17.4776 12.4351 17.6744 12.0311C19.3168 8.66021 17.7815 4.68325 14.3205 3.12886C14.892 3.38959 15.2563 3.87531 15.4644 4.41146C15.6713 4.94464 15.7429 5.56825 15.7217 6.21507C15.6791 7.51129 15.2579 9.07222 14.5056 10.6164L14.5064 10.6167C14.3871 10.8615 14.2623 11.1003 14.1326 11.3323Z" fill="currentColor"/>
</svg>
