<svg width="20" height="20" viewBox="0 0 20 20" fill="none" xmlns="http://www.w3.org/2000/svg">
<path fill-rule="evenodd" clip-rule="evenodd" d="M5.29683 10.7273C6.03217 9.82603 6.78707 8.93733 7.50297 8.02058C7.70972 7.75583 7.91759 7.48963 8.03126 7.17688C8.13043 6.90397 8.17147 6.61334 8.15173 6.32365C8.1291 5.99164 8.00306 5.67831 7.87769 5.36666C7.57237 4.60765 7.30778 3.81829 6.94629 3.08342C6.84209 2.87158 6.71185 2.65591 6.51288 2.46691C6.22181 2.19043 5.85707 2.00393 5.46252 1.92985C5.1928 1.87921 4.9417 1.8999 4.70897 1.93945C4.4934 1.97608 4.24155 2.03906 3.96436 2.10838C3.40897 2.24726 2.85358 2.38611 2.29819 2.52498C1.92723 2.61773 1.66699 2.95105 1.66699 3.33342C1.66699 5.98458 2.23053 8.74765 3.56424 11.0635C4.9128 13.5015 6.94407 15.4508 9.44878 16.7058C11.6414 17.8569 14.2085 18.3334 16.667 18.3334C17.0494 18.3334 17.3828 18.0731 17.4755 17.7021C17.6749 16.9039 17.9227 16.1033 18.0607 15.2912C18.1003 15.0585 18.121 14.8074 18.0703 14.5377C17.9963 14.1431 17.8098 13.7784 17.5333 13.4873C17.3443 13.2883 17.1286 13.1581 16.9168 13.0539C16.2294 12.7158 15.4916 12.4675 14.7818 12.1818C14.4274 12.0391 14.0717 11.8959 13.6985 11.8845C13.3733 11.8745 13.0503 11.9408 12.7554 12.078C12.4168 12.2356 12.1463 12.5074 11.8768 12.778C11.152 13.506 10.4159 14.2229 9.68526 14.9451C7.86411 13.9247 6.38012 12.4968 5.29683 10.7273Z" fill="currentColor"/>
</svg>
