<svg width="100" height="100" viewBox="0 0 100 100" fill="none" xmlns="http://www.w3.org/2000/svg">
<circle cx="78.5827" cy="49.6242" r="4.68624" fill="#2682C3" stroke="#2680BE"/>
<circle cx="49.6267" cy="78.5817" r="4.68624" fill="#E52271" stroke="#F11C71"/>
<circle cx="20.6692" cy="49.6242" r="4.68624" fill="#40B7B0" stroke="#40B8AF"/>
<circle cx="49.6267" cy="20.6682" r="4.68624" fill="#EA8028" stroke="#E97C27"/>
<rect x="64.3709" y="39.7562" width="24.5991" height="8.52171" rx="4.26086" transform="rotate(-29.9677 64.3709 39.7562)" fill="#2682C3" stroke="#2481BB"/>
<rect x="68.9922" y="52.4734" width="24.5991" height="8.52171" rx="4.26086" transform="rotate(31.2199 68.9922 52.4734)" fill="#2682C3" stroke="#2683C0"/>
<rect x="59.8741" y="64.5687" width="24.5991" height="8.52171" rx="4.26086" transform="rotate(60.3288 59.8741 64.5687)" fill="#E52271" stroke="#F31A71"/>
<rect x="47.0589" y="68.8212" width="24.5991" height="8.52171" rx="4.26086" transform="rotate(119.921 47.0589 68.8212)" fill="#E7176B" stroke="#EC2173"/>
<rect x="35.3256" y="59.9194" width="24.5991" height="8.52171" rx="4.26086" transform="rotate(150.995 35.3256 59.9194)" fill="#40B7B0" stroke="#42B7AE"/>
<rect x="30.7695" y="47.3822" width="24.5991" height="8.52171" rx="4.26086" transform="rotate(-148.99 30.7695 47.3822)" fill="#40B7B0" stroke="#3FB8AF"/>
<rect x="40.1728" y="35.0222" width="24.5991" height="8.52171" rx="4.26086" transform="rotate(-122.44 40.1728 35.0222)" fill="#E97C27" stroke="#EA8028"/>
<rect x="52.4685" y="31.0895" width="24.5991" height="8.52171" rx="4.26086" transform="rotate(-60.4905 52.4685 31.0895)" fill="#E97C27" stroke="#EA8028"/>
</svg>
