<svg width="281" height="173" viewBox="0 0 281 173" fill="none" xmlns="http://www.w3.org/2000/svg">
    <path d="M91.0755 199.776C91.0755 199.776 55.7104 195.979 32.0837 164.995C8.45699 134.01 9.68715 110.652 26.8931 98.257C44.0998 85.8685 55.1042 77.1354 47.3251 45.313C39.5474 13.5024 68.991 -4.20179 98.2455 0.751148C127.5 5.70408 130.667 38.6796 167.531 40.0938C204.396 41.5079 218.286 19.3457 245.924 20.8922C273.562 22.4387 283.273 46.3965 273.769 63.4054C264.266 80.4144 271.64 108.198 300.371 118.234C329.102 128.27 341.443 175.087 295.379 188.773C249.315 202.458 142.654 217.552 91.0686 199.777L91.0755 199.776Z" fill="#75A9EF"/>
    <path d="M206.734 81.8774V39.7188L138.93 39.7188V81.8774H206.734Z" fill="#FFF0D9"/>
    <path d="M204.111 78.794H141.543V42.8027H204.111V78.794ZM141.962 78.3742H203.692V43.2265H141.962V78.3742Z" fill="#EACEA9"/>
    <path d="M229.166 86.457H201.688V146.036H229.166V86.457Z" fill="#FF6489"/>
    <path d="M228.661 86.457H201.182V146.036H228.661V86.457Z" fill="#C1294D"/>
    <path d="M228.108 86.9551H200.629V145.38H228.108V86.9551Z" fill="white"/>
    <path d="M221.268 86.9551V142.175L220.845 86.9551H221.268Z" fill="#DDDDDD"/>
    <path d="M222.249 86.9551V142.175L221.821 86.9551H222.249Z" fill="#DDDDDD"/>
    <path d="M223.22 86.9551V142.175L222.793 86.9551H223.22Z" fill="#DDDDDD"/>
    <path d="M224.203 86.9551V142.175L223.775 86.9551H224.203Z" fill="#DDDDDD"/>
    <path d="M225.177 86.9551V142.175L224.75 86.9551H225.177Z" fill="#DDDDDD"/>
    <path d="M226.158 86.9551V142.175L225.73 86.9551H226.158Z" fill="#DDDDDD"/>
    <path d="M227.13 86.9551V142.175L226.703 86.9551H227.13Z" fill="#DDDDDD"/>
    <path d="M220.233 86.457H192.754V146.036H220.233V86.457Z" fill="#FF6489"/>
    <path d="M219.693 86.457H192.214V146.036H219.693V86.457Z" fill="#CE3956"/>
    <path d="M216.157 98.9766H191.733V146.903H216.157V98.9766Z" fill="#FFB6CB"/>
    <path d="M215.705 98.9766H191.281V146.903H215.705V98.9766Z" fill="#D36786"/>
    <path d="M215.217 99.375H190.794V146.373H215.217V99.375Z" fill="white"/>
    <path d="M209.025 99.3711V144.698L208.598 99.3711H209.025Z" fill="#DDDDDD"/>
    <path d="M210.001 99.3711V144.698L209.578 99.3711H210.001Z" fill="#DDDDDD"/>
    <path d="M210.982 99.3711V144.698L210.555 99.3711H210.982Z" fill="#DDDDDD"/>
    <path d="M211.956 99.3711V144.698L211.528 99.3711H211.956Z" fill="#DDDDDD"/>
    <path d="M212.934 99.3711V144.698L212.507 99.3711H212.934Z" fill="#DDDDDD"/>
    <path d="M213.911 99.3711V144.698L213.483 99.3711H213.911Z" fill="#DDDDDD"/>
    <path d="M214.891 99.3711V144.698L214.464 99.3711H214.891Z" fill="#DDDDDD"/>
    <path d="M208.215 98.9766H183.791V146.903H208.215V98.9766Z" fill="#FFB6CB"/>
    <path d="M214.886 144.699L176.064 146.903V98.9766H207.736L214.886 144.699Z" fill="#DE92A4"/>
    <path d="M113.934 85.7999C122.061 81.5619 127.85 76.5892 126.864 74.6931C125.878 72.7971 118.49 74.6957 110.363 78.9337C102.236 83.1718 96.4469 88.1445 97.433 90.0405C98.4192 91.9366 105.807 90.038 113.934 85.7999Z" fill="#2D2D2D"/>
    <path d="M160.13 130.67H143.236V142.799H160.13V130.67Z" fill="#0E1A1C"/>
    <g style="mix-blend-mode:multiply">
        <path d="M176.062 98.9805V140.308L198.703 137.188C200.058 137.188 201.154 136.09 201.154 134.734V98.9805H176.062Z" fill="#E0CADA"/>
    </g>
    <path d="M197.267 73.6445H106.095C104.742 73.6445 103.645 74.7432 103.645 76.0986V130.414C103.645 131.77 104.742 132.868 106.095 132.868H197.267C198.621 132.868 199.718 131.77 199.718 130.414V76.0986C199.718 74.7432 198.621 73.6445 197.267 73.6445Z" fill="#182C31"/>
    <path d="M197.755 77.9023H105.604V126.329H197.755V77.9023Z" fill="#08CAEE"/>
    <path d="M179.071 126.329H124.286L121.344 77.9023H182.014L179.071 126.329Z" fill="#00AFC6"/>
    <path d="M108.175 130.667C108.756 130.667 109.227 130.196 109.227 129.614C109.227 129.032 108.756 128.561 108.175 128.561C107.594 128.561 107.123 129.032 107.123 129.614C107.123 130.196 107.594 130.667 108.175 130.667Z" fill="#294A4F"/>
    <path d="M130.243 141.703H173.12C175.252 141.703 176.986 143.439 176.986 145.574V147.862H126.373V145.574C126.373 143.439 128.106 141.703 130.239 141.703H130.243Z" fill="#182C31"/>
    <path d="M77.7617 81.43L101.863 56.6878L135.441 54.7988L135.618 55.1419L111.041 76.6511L77.9431 81.7772L77.7617 81.43Z" fill="#22393D"/>
    <path d="M77.9443 81.7759L102.045 57.0296L135.619 55.1406L111.224 76.9969L77.9443 81.7759Z" fill="#182C31"/>
    <path d="M110.369 78.9317C118.496 74.6936 125.881 72.7925 126.868 74.6896L119.56 60.6434C118.572 58.7464 111.188 60.6475 103.061 64.8855C94.935 69.1236 89.1466 74.0962 90.1341 75.9892L97.4423 90.0354C96.4547 88.1384 102.243 83.1697 110.369 78.9317Z" fill="#22393D"/>
    <path d="M105.377 63.735L112.484 77.874C116.986 75.7146 121.09 74.3422 123.774 74.0274L116.724 59.957C114.088 60.2073 109.948 61.5594 105.377 63.735Z" fill="#2E494C"/>
    <path d="M116.826 74.2351H115.746V55.9065L116.826 55.8379V74.2351Z" fill="#FFC200"/>
    <path d="M116.257 73.3516C117.333 73.3516 118.203 74.2234 118.203 75.3011V81.8156H114.31V75.3011C114.31 74.2234 115.18 73.3516 116.257 73.3516Z" fill="#FFD400"/>
    <path d="M179.076 58.4277H124.291V126.322H179.076V58.4277Z" fill="white"/>
    <path d="M179.076 58.4277H124.291V71.5173H179.076V58.4277Z" fill="#0094CE"/>
    <path d="M131.582 69.7734H130.341L132.6 63.3567H134.035L136.297 69.7734H135.057L133.343 64.6727H133.293L131.582 69.7734ZM131.623 67.2575H135.006V68.1912H131.623V67.2575ZM139.194 64.9609V65.8382H136.427V64.9609H139.194ZM137.11 63.8079H138.245V68.3259C138.245 68.4784 138.268 68.5954 138.313 68.6768C138.362 68.7562 138.424 68.8105 138.501 68.8398C138.579 68.869 138.664 68.8836 138.758 68.8836C138.829 68.8836 138.894 68.8784 138.953 68.868C139.013 68.8575 139.059 68.8481 139.091 68.8398L139.282 69.7264C139.221 69.7473 139.134 69.7703 139.022 69.7954C138.911 69.8204 138.775 69.8351 138.614 69.8392C138.33 69.8476 138.074 69.8048 137.847 69.7108C137.619 69.6147 137.438 69.4664 137.305 69.2659C137.173 69.0653 137.108 68.8147 137.11 68.5139V63.8079ZM142.221 69.8674C141.739 69.8674 141.322 69.7672 140.971 69.5666C140.622 69.364 140.354 69.0779 140.166 68.7082C139.978 68.3364 139.884 67.8988 139.884 67.3954C139.884 66.9003 139.978 66.4659 140.166 66.092C140.356 65.716 140.621 65.4236 140.962 65.2147C141.302 65.0037 141.702 64.8982 142.162 64.8982C142.458 64.8982 142.738 64.9463 143.001 65.0424C143.267 65.1364 143.501 65.2826 143.703 65.481C143.908 65.6794 144.069 65.9322 144.186 66.2392C144.303 66.5442 144.361 66.9076 144.361 67.3296V67.6774H140.417V66.9129H143.274C143.272 66.6956 143.225 66.5024 143.133 66.3332C143.041 66.162 142.913 66.0272 142.748 65.9291C142.585 65.8309 142.395 65.7818 142.177 65.7818C141.946 65.7818 141.742 65.8382 141.566 65.951C141.391 66.0617 141.254 66.2079 141.156 66.3896C141.06 66.5693 141.011 66.7667 141.009 66.9818V67.6492C141.009 67.9291 141.06 68.1693 141.162 68.3698C141.265 68.5682 141.408 68.7207 141.592 68.8272C141.775 68.9317 141.991 68.9839 142.237 68.9839C142.402 68.9839 142.551 68.9609 142.685 68.915C142.819 68.8669 142.935 68.7969 143.033 68.705C143.131 68.6131 143.205 68.4993 143.255 68.3635L144.314 68.4826C144.247 68.7625 144.12 69.0069 143.932 69.2157C143.746 69.4225 143.508 69.5834 143.218 69.6982C142.927 69.811 142.595 69.8674 142.221 69.8674ZM149.124 66.233L148.091 66.3458C148.061 66.2413 148.01 66.1432 147.937 66.0513C147.866 65.9593 147.77 65.8852 147.649 65.8288C147.528 65.7724 147.379 65.7442 147.204 65.7442C146.968 65.7442 146.769 65.7954 146.609 65.8977C146.45 66.0001 146.371 66.1327 146.374 66.2956C146.371 66.4356 146.423 66.5494 146.527 66.6372C146.634 66.7249 146.809 66.7969 147.053 66.8533L147.874 67.0288C148.33 67.127 148.668 67.2826 148.889 67.4956C149.113 67.7087 149.226 67.9875 149.228 68.3322C149.226 68.6351 149.137 68.9024 148.962 69.1343C148.788 69.364 148.547 69.5437 148.238 69.6732C147.929 69.8027 147.574 69.8674 147.172 69.8674C146.583 69.8674 146.109 69.7442 145.75 69.4977C145.391 69.2492 145.177 68.9035 145.108 68.4606L146.214 68.3541C146.264 68.5714 146.37 68.7353 146.533 68.846C146.696 68.9567 146.908 69.0121 147.169 69.0121C147.439 69.0121 147.655 68.9567 147.818 68.846C147.983 68.7353 148.065 68.5985 148.065 68.4356C148.065 68.2977 148.012 68.1839 147.906 68.0941C147.801 68.0042 147.638 67.9353 147.417 67.8873L146.596 67.715C146.134 67.6189 145.793 67.457 145.571 67.2293C145.35 66.9996 145.24 66.7092 145.242 66.3583C145.24 66.0617 145.321 65.8048 145.484 65.5875C145.649 65.3682 145.877 65.199 146.17 65.08C146.464 64.9588 146.804 64.8982 147.188 64.8982C147.752 64.8982 148.196 65.0184 148.52 65.2586C148.846 65.4988 149.047 65.8236 149.124 66.233ZM152.566 64.9609V65.8382H149.8V64.9609H152.566ZM150.483 63.8079H151.617V68.3259C151.617 68.4784 151.64 68.5954 151.686 68.6768C151.734 68.7562 151.797 68.8105 151.874 68.8398C151.951 68.869 152.037 68.8836 152.131 68.8836C152.202 68.8836 152.266 68.8784 152.325 68.868C152.386 68.8575 152.431 68.8481 152.463 68.8398L152.654 69.7264C152.593 69.7473 152.507 69.7703 152.394 69.7954C152.283 69.8204 152.147 69.8351 151.987 69.8392C151.703 69.8476 151.447 69.8048 151.219 69.7108C150.991 69.6147 150.811 69.4664 150.677 69.2659C150.545 69.0653 150.481 68.8147 150.483 68.5139V63.8079ZM154.9 69.8706C154.595 69.8706 154.32 69.8163 154.076 69.7076C153.833 69.5969 153.641 69.434 153.499 69.2189C153.359 69.0037 153.289 68.7385 153.289 68.423C153.289 68.1515 153.339 67.927 153.44 67.7494C153.54 67.5719 153.677 67.4298 153.85 67.3233C154.023 67.2168 154.219 67.1364 154.436 67.0821C154.655 67.0257 154.882 66.9849 155.116 66.9599C155.398 66.9306 155.627 66.9045 155.802 66.8815C155.977 66.8565 156.105 66.8189 156.184 66.7687C156.266 66.7165 156.306 66.6361 156.306 66.5275V66.5087C156.306 66.2727 156.236 66.0899 156.096 65.9604C155.957 65.8309 155.755 65.7661 155.492 65.7661C155.214 65.7661 154.994 65.8267 154.831 65.9479C154.67 66.069 154.561 66.2121 154.505 66.3771L153.446 66.2267C153.529 65.9343 153.667 65.6899 153.859 65.4935C154.052 65.2951 154.287 65.1468 154.564 65.0486C154.842 64.9484 155.149 64.8982 155.486 64.8982C155.717 64.8982 155.948 64.9254 156.178 64.9797C156.408 65.034 156.618 65.1238 156.808 65.2492C156.998 65.3724 157.15 65.5405 157.265 65.7536C157.382 65.9667 157.441 66.233 157.441 66.5526V69.7734H156.35V69.1123H156.313C156.244 69.246 156.147 69.3713 156.021 69.4883C155.898 69.6032 155.742 69.6962 155.554 69.7672C155.369 69.8361 155.15 69.8706 154.9 69.8706ZM155.194 69.0371C155.422 69.0371 155.619 68.9922 155.786 68.9024C155.953 68.8105 156.082 68.6894 156.172 68.539C156.264 68.3886 156.31 68.2246 156.31 68.0471V67.48C156.274 67.5092 156.213 67.5364 156.128 67.5614C156.044 67.5865 155.95 67.6084 155.846 67.6272C155.741 67.646 155.638 67.6627 155.536 67.6774C155.433 67.692 155.345 67.7045 155.269 67.715C155.1 67.7379 154.949 67.7755 154.815 67.8277C154.681 67.88 154.576 67.9531 154.499 68.0471C154.421 68.139 154.383 68.258 154.383 68.4042C154.383 68.6131 154.459 68.7708 154.611 68.8774C154.764 68.9839 154.958 69.0371 155.194 69.0371ZM160.984 64.9609V65.8382H158.218V64.9609H160.984ZM158.901 63.8079H160.035V68.3259C160.035 68.4784 160.058 68.5954 160.104 68.6768C160.152 68.7562 160.215 68.8105 160.292 68.8398C160.369 68.869 160.455 68.8836 160.549 68.8836C160.62 68.8836 160.684 68.8784 160.743 68.868C160.804 68.8575 160.849 68.8481 160.881 68.8398L161.072 69.7264C161.011 69.7473 160.925 69.7703 160.812 69.7954C160.701 69.8204 160.565 69.8351 160.405 69.8392C160.121 69.8476 159.865 69.8048 159.637 69.7108C159.409 69.6147 159.229 69.4664 159.095 69.2659C158.963 69.0653 158.899 68.8147 158.901 68.5139V63.8079ZM165.667 66.233L164.634 66.3458C164.604 66.2413 164.553 66.1432 164.48 66.0513C164.409 65.9593 164.313 65.8852 164.192 65.8288C164.071 65.7724 163.922 65.7442 163.747 65.7442C163.511 65.7442 163.312 65.7954 163.152 65.8977C162.993 66.0001 162.915 66.1327 162.917 66.2956C162.915 66.4356 162.966 66.5494 163.07 66.6372C163.177 66.7249 163.352 66.7969 163.596 66.8533L164.417 67.0288C164.873 67.127 165.211 67.2826 165.433 67.4956C165.656 67.7087 165.769 67.9875 165.771 68.3322C165.769 68.6351 165.68 68.9024 165.505 69.1343C165.331 69.364 165.09 69.5437 164.781 69.6732C164.472 69.8027 164.117 69.8674 163.716 69.8674C163.127 69.8674 162.652 69.7442 162.293 69.4977C161.934 69.2492 161.72 68.9035 161.651 68.4606L162.757 68.3541C162.807 68.5714 162.913 68.7353 163.076 68.846C163.239 68.9567 163.451 69.0121 163.712 69.0121C163.982 69.0121 164.198 68.9567 164.361 68.846C164.526 68.7353 164.608 68.5985 164.608 68.4356C164.608 68.2977 164.555 68.1839 164.449 68.0941C164.344 68.0042 164.181 67.9353 163.96 67.8873L163.139 67.715C162.677 67.6189 162.336 67.457 162.115 67.2293C161.893 66.9996 161.783 66.7092 161.786 66.3583C161.783 66.0617 161.864 65.8048 162.027 65.5875C162.192 65.3682 162.421 65.199 162.713 65.08C163.007 64.9588 163.347 64.8982 163.731 64.8982C164.295 64.8982 164.739 65.0184 165.063 65.2586C165.389 65.4988 165.59 65.8236 165.667 66.233ZM130.708 80.7734V75.9609H131.842V80.7734H130.708ZM131.278 75.2779C131.098 75.2779 130.944 75.2184 130.814 75.0993C130.685 74.9781 130.62 74.833 130.62 74.6638C130.62 74.4925 130.685 74.3473 130.814 74.2283C130.944 74.1071 131.098 74.0466 131.278 74.0466C131.46 74.0466 131.614 74.1071 131.742 74.2283C131.871 74.3473 131.936 74.4925 131.936 74.6638C131.936 74.833 131.871 74.9781 131.742 75.0993C131.614 75.2184 131.46 75.2779 131.278 75.2779ZM133.713 82.5781C133.559 82.5781 133.416 82.5656 133.284 82.5405C133.154 82.5176 133.051 82.4904 132.974 82.4591L133.237 81.5755C133.402 81.6236 133.549 81.6465 133.679 81.6445C133.808 81.6424 133.922 81.6016 134.02 81.5223C134.121 81.445 134.205 81.3155 134.274 81.1338L134.371 80.8737L132.626 75.9609H133.829L134.938 79.5954H134.988L136.101 75.9609H137.307L135.38 81.3562C135.29 81.611 135.171 81.8293 135.023 82.011C134.875 82.1948 134.693 82.3348 134.478 82.4309C134.265 82.529 134.01 82.5781 133.713 82.5781ZM139.339 80.8706C139.034 80.8706 138.759 80.8163 138.515 80.7076C138.273 80.5969 138.08 80.434 137.938 80.2189C137.798 80.0037 137.728 79.7385 137.728 79.423C137.728 79.1515 137.779 78.927 137.879 78.7494C137.979 78.5719 138.116 78.4298 138.289 78.3233C138.463 78.2168 138.658 78.1364 138.875 78.0821C139.094 78.0257 139.321 77.9849 139.555 77.9599C139.837 77.9306 140.066 77.9045 140.241 77.8815C140.417 77.8565 140.544 77.8189 140.623 77.7687C140.705 77.7165 140.746 77.6361 140.746 77.5275V77.5087C140.746 77.2727 140.676 77.0899 140.536 76.9604C140.396 76.8309 140.194 76.7661 139.931 76.7661C139.653 76.7661 139.433 76.8267 139.27 76.9479C139.109 77.069 139 77.2121 138.944 77.3771L137.885 77.2267C137.969 76.9343 138.106 76.6899 138.299 76.4935C138.491 76.2951 138.726 76.1468 139.004 76.0486C139.281 75.9484 139.588 75.8982 139.925 75.8982C140.157 75.8982 140.387 75.9254 140.617 75.9797C140.847 76.034 141.057 76.1238 141.247 76.2492C141.437 76.3724 141.589 76.5405 141.704 76.7536C141.821 76.9667 141.88 77.233 141.88 77.5526V80.7734H140.789V80.1123H140.752C140.683 80.246 140.586 80.3713 140.46 80.4883C140.337 80.6032 140.182 80.6962 139.994 80.7672C139.808 80.8361 139.589 80.8706 139.339 80.8706ZM139.633 80.0371C139.861 80.0371 140.058 79.9922 140.226 79.9024C140.393 79.8105 140.521 79.6894 140.611 79.539C140.703 79.3886 140.749 79.2246 140.749 79.0471V78.48C140.713 78.5092 140.653 78.5364 140.567 78.5614C140.483 78.5865 140.389 78.6084 140.285 78.6272C140.181 78.646 140.077 78.6627 139.975 78.6774C139.873 78.692 139.784 78.7045 139.709 78.715C139.539 78.7379 139.388 78.7755 139.254 78.8277C139.121 78.88 139.015 78.9531 138.938 79.0471C138.86 79.139 138.822 79.258 138.822 79.4042C138.822 79.6131 138.898 79.7708 139.051 79.8774C139.203 79.9839 139.397 80.0371 139.633 80.0371Z" fill="white"/>
    <path d="M174.088 77.7344H133.896V78.7152H174.088V77.7344Z" fill="#E2E2E2"/>
    <path d="M174.088 81.0879H133.896V82.0687H174.088V81.0879Z" fill="#E2E2E2"/>
    <path d="M174.088 84.4434H133.896V85.4242H174.088V84.4434Z" fill="#E2E2E2"/>
    <path d="M174.088 87.7969H133.896V88.7777H174.088V87.7969Z" fill="#E2E2E2"/>
    <path d="M130.299 79.3727C130.931 79.3727 131.444 78.8595 131.444 78.2264C131.444 77.5933 130.931 77.0801 130.299 77.0801C129.667 77.0801 129.154 77.5933 129.154 78.2264C129.154 78.8595 129.667 79.3727 130.299 79.3727Z" fill="#C9C9C9"/>
    <path d="M174.088 94.4238H133.896V95.4046H174.088V94.4238Z" fill="#E2E2E2"/>
    <path d="M174.088 97.7773H133.896V98.7582H174.088V97.7773Z" fill="#E2E2E2"/>
    <path d="M174.088 101.135H133.896V102.116H174.088V101.135Z" fill="#E2E2E2"/>
    <path d="M174.088 104.486H133.896V105.467H174.088V104.486Z" fill="#E2E2E2"/>
    <path d="M130.299 96.0602C130.931 96.0602 131.444 95.547 131.444 94.9139C131.444 94.2808 130.931 93.7676 130.299 93.7676C129.667 93.7676 129.154 94.2808 129.154 94.9139C129.154 95.547 129.667 96.0602 130.299 96.0602Z" fill="#C9C9C9"/>
    <path d="M174.088 111.111H133.896V112.092H174.088V111.111Z" fill="#E2E2E2"/>
    <path d="M174.088 114.465H133.896V115.446H174.088V114.465Z" fill="#E2E2E2"/>
    <path d="M174.088 117.82H133.896V118.801H174.088V117.82Z" fill="#E2E2E2"/>
    <path d="M174.088 121.174H133.896V122.155H174.088V121.174Z" fill="#E2E2E2"/>
    <path d="M130.299 112.75C130.931 112.75 131.444 112.236 131.444 111.603C131.444 110.97 130.931 110.457 130.299 110.457C129.667 110.457 129.154 110.97 129.154 111.603C129.154 112.236 129.667 112.75 130.299 112.75Z" fill="#C9C9C9"/>
    <g style="mix-blend-mode:multiply">
        <path d="M199.72 93.8923V85.2709L199.547 85.0005C199.604 84.9803 199.664 84.9641 199.72 84.944V76.1005C199.72 74.7443 198.672 73.6465 197.383 73.6465H181.948C181.94 73.6747 181.932 73.703 181.924 73.7312C181.553 74.8009 180.029 75.7494 180.029 76.936C180.029 78.1227 181.553 79.0672 181.924 80.1408C182.307 81.2508 181.678 82.8572 182.395 83.7815C182.98 84.5363 184.278 84.6372 185.282 85.0045L180.577 92.2657L184.205 92.4716L186.068 95.4059L191.155 87.5514C191.582 87.4141 192.009 87.3011 192.416 87.3011C192.824 87.3011 193.251 87.4101 193.678 87.5514L198.765 95.4059L199.724 93.8923H199.72Z" fill="#E2E2E2"/>
    </g>
    <path d="M204.532 90.9235L201.162 91.1294L199.433 94.0355L192.762 83.0649L197.861 79.957L204.532 90.9235Z" fill="#FFE706"/>
    <path d="M182.524 90.9235L185.898 91.1294L187.628 94.0355L194.299 83.0649L189.196 79.957L182.524 90.9235Z" fill="#FFE706"/>
    <path d="M205.041 75.7485C205.041 76.9231 203.626 77.8595 203.279 78.921C202.932 79.9826 203.505 81.6092 202.84 82.5254C202.175 83.4416 200.474 83.3811 199.55 84.0551C198.627 84.7292 198.18 86.3598 197.084 86.715C196.023 87.0581 194.701 86.0127 193.524 86.0127C192.347 86.0127 191.025 87.0581 189.965 86.715C188.905 86.372 188.413 84.7211 187.498 84.0551C186.583 83.3892 184.882 83.4497 184.209 82.5254C183.536 81.6011 184.128 80.0229 183.769 78.921C183.411 77.8191 182.008 76.9231 182.008 75.7485C182.008 74.574 183.423 73.6376 183.769 72.576C184.124 71.4782 183.544 69.8879 184.209 68.9717C184.874 68.0554 186.575 68.116 187.498 67.4419C188.421 66.7679 188.868 65.1372 189.965 64.782C191.025 64.4389 192.347 65.4843 193.524 65.4843C194.701 65.4843 196.023 64.4389 197.084 64.782C198.144 65.1251 198.635 66.7759 199.55 67.4419C200.466 68.1079 202.167 68.0474 202.84 68.9717C203.513 69.896 202.92 71.4741 203.279 72.576C203.638 73.6779 205.041 74.574 205.041 75.7485Z" fill="#0094CE"/>
    <path d="M193.528 84.1132C198.143 84.1132 201.884 80.3671 201.884 75.7461C201.884 71.125 198.143 67.3789 193.528 67.3789C188.913 67.3789 185.172 71.125 185.172 75.7461C185.172 80.3671 188.913 84.1132 193.528 84.1132Z" fill="#FFC200"/>
    <path d="M193.53 80.8479C196.341 80.8479 198.621 78.5656 198.621 75.7501C198.621 72.9347 196.341 70.6523 193.53 70.6523C190.718 70.6523 188.438 72.9347 188.438 75.7501C188.438 78.5656 190.718 80.8479 193.53 80.8479Z" fill="white"/>
    <path d="M193.526 83.3573C189.338 83.3573 185.928 79.9467 185.928 75.749C185.928 71.5513 189.334 68.1406 193.526 68.1406C197.718 68.1406 201.124 71.5513 201.124 75.749C201.124 79.9467 197.718 83.3573 193.526 83.3573ZM193.526 68.4716C189.515 68.4716 186.254 71.7369 186.254 75.753C186.254 79.7691 189.515 83.0344 193.526 83.0344C197.537 83.0344 200.798 79.7691 200.798 75.753C200.798 71.7369 197.537 68.4716 193.526 68.4716Z" fill="#FFE706"/>
    <path d="M189.142 102.242L183.89 102.197L186.478 106.774L187.07 104.805L189.219 106.072L189.859 104.986L187.711 103.719L189.142 102.242Z" fill="white"/>
    <g style="mix-blend-mode:multiply">
        <path d="M111.458 132.183C111.531 131.573 111.547 130.94 111.458 130.27V132.183Z" fill="#E2E2E2"/>
        <path d="M132.588 101.095C128.803 99.9443 125.889 101.058 123.986 102.568V95.9121H111.458V120.755C112.421 119.859 113.534 119.193 114.304 118.798C114.618 118.66 114.925 118.515 115.227 118.366C115.235 118.366 115.243 118.362 115.243 118.362C118.323 116.808 120.818 114.402 122.342 111.496C122.467 111.258 122.583 111.016 122.696 110.77C122.72 110.713 122.745 110.657 122.769 110.6C122.853 110.41 122.934 110.217 123.011 110.019C123.043 109.942 123.067 109.861 123.099 109.785C123.164 109.607 123.228 109.43 123.285 109.252C123.313 109.163 123.341 109.07 123.369 108.982C123.422 108.812 123.47 108.638 123.515 108.469C123.539 108.372 123.567 108.271 123.591 108.174C123.631 108.005 123.668 107.835 123.704 107.666C123.724 107.565 123.744 107.464 123.764 107.359C123.797 107.185 123.821 107.012 123.845 106.838C123.861 106.737 123.873 106.636 123.885 106.536C123.91 106.346 123.926 106.156 123.938 105.966C123.946 105.878 123.954 105.789 123.962 105.7C123.974 105.514 123.978 105.325 123.982 105.135C124.97 103.855 127.546 101.381 131.996 102.733C133.511 103.194 134.136 105.131 133.592 107.674C132.367 113.373 125.478 121.397 111.462 121.454V123.177C126.61 123.125 134.092 114.277 135.438 108.001C136.176 104.562 135.059 101.858 132.592 101.107L132.588 101.095Z" fill="#E2E2E2"/>
    </g>
    <path d="M110.327 121.067C109.565 121.067 108.788 121.043 107.985 120.99L108.102 119.166C123.283 120.147 130.655 110.956 131.913 104.535C132.441 101.826 131.836 99.7598 130.365 99.2714C124.79 97.4107 122.247 102.359 122.142 102.569L120.51 101.75C121.65 99.4692 125.298 95.6509 130.942 97.5358C133.336 98.335 134.42 101.221 133.703 104.886C132.393 111.594 125.105 121.067 110.327 121.067Z" fill="#FFC200"/>
    <path d="M101.989 121.067C102.751 121.067 103.529 121.043 104.331 120.99L104.214 119.166C89.0338 120.147 81.6612 110.956 80.4036 104.535C79.8755 101.826 80.4802 99.7598 81.9515 99.2714C87.5263 97.4107 90.0698 102.359 90.1746 102.569L91.8071 101.75C90.6664 99.4692 87.0184 95.6509 81.375 97.5358C78.9807 98.335 77.8963 101.221 78.6138 104.886C79.9239 111.594 87.2119 121.067 101.989 121.067Z" fill="#FFC200"/>
    <path d="M109.71 138.807C108.292 134.036 112.451 130.989 109.303 125.201C106.155 119.413 114.12 115.934 114.12 115.934L106.155 116.571L98.19 115.934C98.19 115.934 106.155 119.413 103.007 125.201C99.8588 130.989 104.023 134.032 102.6 138.807C101.181 143.578 97.2266 145.406 97.2266 145.406L106.155 146.423L115.084 145.406C115.084 145.406 111.129 143.578 109.71 138.807Z" fill="#FFC200"/>
    <path d="M119.659 145.404H92.6475V152.92H119.659V145.404Z" fill="#FFD400"/>
    <path d="M120.152 152.104H92.1648C91.3678 152.104 90.7217 152.75 90.7217 153.548V153.553C90.7217 154.351 91.3678 154.998 92.1648 154.998H120.152C120.949 154.998 121.595 154.351 121.595 153.553V153.548C121.595 152.75 120.949 152.104 120.152 152.104Z" fill="#FFE706"/>
    <path d="M89.7148 92.002H122.599V101.528C122.599 110.613 115.231 117.991 106.157 117.991C97.0834 117.991 89.7148 110.613 89.7148 101.528V92.002Z" fill="#FFC200"/>
    <path d="M95.3418 94.9807C95.3418 104.074 102.702 111.445 111.784 111.445C115.198 111.445 118.371 110.399 121.003 108.615C122.027 106.468 122.603 104.066 122.603 101.528V92.002H95.3458V94.9807H95.3418Z" fill="#FFD400"/>
    <path d="M107.776 120.074C107.776 120.074 106.965 122.662 108.586 126.218C110.206 129.773 108.332 133.374 108.078 136.114C107.824 138.855 108.735 143.121 111.677 144.389C109.396 143.626 106.405 142.157 106.913 135.961C107.421 129.769 107.215 127.279 106.611 124.538C106.002 121.798 107.776 120.07 107.776 120.07V120.074Z" fill="#FFD400"/>
    <path d="M89.5394 142.381C88.8218 143.1 87.6529 143.1 86.9354 142.381L83.6582 139.1L86.2622 136.492L89.5394 139.774C90.2569 140.492 90.2569 141.663 89.5394 142.381Z" fill="#182C31"/>
    <path d="M59.0596 142.381C59.7771 143.1 60.9461 143.1 61.6636 142.381L64.9408 139.1L62.3368 136.492L59.0596 139.774C58.3421 140.492 58.3421 141.663 59.0596 142.381Z" fill="#182C31"/>
    <g style="mix-blend-mode:multiply">
        <path d="M76.0979 102.117C70.1724 102.117 64.8395 104.66 61.127 108.716V123.295C61.127 124.652 62.2234 125.749 63.5778 125.749H96.1317C96.3091 124.676 96.4018 123.57 96.4018 122.448C96.4018 111.219 87.312 102.117 76.0979 102.117Z" fill="#E2E2E2"/>
    </g>
    <path d="M74.3029 142.421C85.5164 142.421 94.6068 133.319 94.6068 122.09C94.6068 110.862 85.5164 101.76 74.3029 101.76C63.0894 101.76 53.999 110.862 53.999 122.09C53.999 133.319 63.0894 142.421 74.3029 142.421Z" fill="#CE3956"/>
    <path d="M73.395 102.979C84.609 102.979 93.6988 112.08 93.6988 123.309C93.6988 127.584 92.3807 131.547 90.1314 134.817C92.9289 131.333 94.6058 126.91 94.6058 122.09C94.6058 110.862 85.516 101.76 74.3019 101.76C67.3566 101.76 61.2296 105.255 57.5654 110.579C61.286 105.945 66.9938 102.975 73.395 102.975V102.979Z" fill="#E85679"/>
    <path d="M74.3013 139.363C83.8295 139.363 91.5537 131.628 91.5537 122.088C91.5537 112.547 83.8295 104.812 74.3013 104.812C64.773 104.812 57.0488 112.547 57.0488 122.088C57.0488 131.628 64.773 139.363 74.3013 139.363Z" fill="#E2E2E2"/>
    <path d="M73.9264 139.364C83.2476 139.364 90.804 131.798 90.804 122.464C90.804 113.131 83.2476 105.564 73.9264 105.564C64.6052 105.564 57.0488 113.131 57.0488 122.464C57.0488 131.798 64.6052 139.364 73.9264 139.364Z" fill="white"/>
    <path d="M74.3044 106.168H74.3004C73.9932 106.168 73.7441 106.417 73.7441 106.725V110.136C73.7441 110.443 73.9932 110.693 74.3004 110.693H74.3044C74.6117 110.693 74.8607 110.443 74.8607 110.136V106.725C74.8607 106.417 74.6117 106.168 74.3044 106.168Z" fill="#182C31"/>
    <path d="M74.3009 138.014C74.7217 138.014 75.0628 137.672 75.0628 137.251C75.0628 136.83 74.7217 136.488 74.3009 136.488C73.8802 136.488 73.5391 136.83 73.5391 137.251C73.5391 137.672 73.8802 138.014 74.3009 138.014Z" fill="#182C31"/>
    <path d="M59.5158 122.854C59.9365 122.854 60.2776 122.512 60.2776 122.091C60.2776 121.67 59.9365 121.328 59.5158 121.328C59.095 121.328 58.7539 121.67 58.7539 122.091C58.7539 122.512 59.095 122.854 59.5158 122.854Z" fill="#182C31"/>
    <path d="M89.0939 122.854C89.5146 122.854 89.8557 122.512 89.8557 122.091C89.8557 121.67 89.5146 121.328 89.0939 121.328C88.6731 121.328 88.332 121.67 88.332 122.091C88.332 122.512 88.6731 122.854 89.0939 122.854Z" fill="#182C31"/>
    <path d="M64.9126 114.798C64.632 114.604 64.248 114.675 64.0548 114.956C63.8617 115.237 63.9325 115.622 64.213 115.815L77.1877 124.761C77.4682 124.954 77.8522 124.883 78.0454 124.602C78.2386 124.321 78.1677 123.937 77.8872 123.743L64.9126 114.798Z" fill="#FFC200"/>
    <path d="M74.3048 124.18C75.458 124.18 76.3929 123.244 76.3929 122.089C76.3929 120.934 75.458 119.998 74.3048 119.998C73.1516 119.998 72.2168 120.934 72.2168 122.089C72.2168 123.244 73.1516 124.18 74.3048 124.18Z" fill="#182C31"/>
    <path d="M214.357 59.6545L220.835 61.0106L214.333 62.3709C212.728 62.7059 211.475 63.9531 211.124 65.5555L209.79 71.6704L208.456 65.5555C208.105 63.9531 206.847 62.7059 205.247 62.3709L198.745 61.0106L205.223 59.6545C206.839 59.3154 208.101 58.0521 208.44 56.4335L209.794 49.9473L211.148 56.4335C211.487 58.0521 212.749 59.3154 214.365 59.6545H214.357Z" fill="white"/>
    <path d="M110.181 20.7072L116.659 22.0634L110.157 23.4236C108.553 23.7586 107.299 25.0058 106.948 26.6082L105.614 32.7231L104.28 26.6082C103.929 25.0058 102.672 23.7586 101.071 23.4236L94.5693 22.0634L101.047 20.7072C102.663 20.3681 103.925 19.1048 104.264 17.4863L105.618 11L106.973 17.4863C107.311 19.1048 108.573 20.3681 110.189 20.7072H110.181Z" fill="white"/>
    <path d="M109.747 83.436L113.44 84.211L109.731 84.986C108.816 85.1757 108.103 85.8901 107.901 86.8023L107.139 90.2896L106.377 86.8023C106.176 85.8901 105.462 85.1797 104.547 84.986L100.839 84.211L104.531 83.436C105.454 83.2423 106.172 82.5239 106.365 81.5995L107.139 77.9023L107.913 81.5995C108.107 82.5239 108.824 83.2423 109.747 83.436Z" fill="white"/>
    <path d="M148.789 49.4615L151.796 50.0911L148.777 50.7248C148.031 50.8823 147.451 51.4594 147.285 52.2021L146.665 55.0396L146.044 52.2021C145.883 51.4594 145.298 50.8782 144.552 50.7248L141.533 50.0911L144.54 49.4615C145.29 49.3041 145.879 48.7188 146.032 47.9681L146.661 44.957L147.289 47.9681C147.447 48.7188 148.031 49.3081 148.781 49.4615H148.789Z" fill="white"/>
    <path d="M121.554 40.4654L124.561 41.0951L121.541 41.7287C120.796 41.8862 120.215 42.4633 120.05 43.206L119.429 46.0435L118.808 43.206C118.647 42.4633 118.063 41.8821 117.317 41.7287L114.298 41.0951L117.305 40.4654C118.055 40.308 118.643 39.7227 118.796 38.972L119.425 35.9609L120.054 38.972C120.211 39.7227 120.796 40.312 121.545 40.4654H121.554Z" fill="white"/>
    <path d="M205.129 38.2916L208.136 38.9212L205.117 39.5549C204.371 39.7123 203.79 40.2895 203.625 41.0322L203.004 43.8697L202.384 41.0322C202.222 40.2895 201.638 39.7083 200.892 39.5549L197.873 38.9212L200.88 38.2916C201.63 38.1342 202.218 37.5489 202.372 36.7982L203 33.7871L203.629 36.7982C203.786 37.5489 204.371 38.1382 205.121 38.2916H205.129Z" fill="white"/>
    <path d="M186.149 60.5669L187.536 60.8576L186.145 61.1482C185.802 61.2208 185.532 61.4872 185.46 61.8303L185.174 63.138L184.887 61.8303C184.811 61.4872 184.545 61.2208 184.202 61.1482L182.812 60.8576L184.198 60.5669C184.545 60.4943 184.815 60.2239 184.887 59.8768L185.178 58.4883L185.468 59.8768C185.54 60.2239 185.811 60.4943 186.157 60.5669H186.149Z" fill="white"/>
    <path d="M189.414 40.9087L190.8 41.1994L189.41 41.49C189.067 41.5626 188.797 41.829 188.724 42.1721L188.438 43.4798L188.152 42.1721C188.076 41.829 187.809 41.5626 187.467 41.49L186.076 41.1994L187.463 40.9087C187.809 40.8361 188.08 40.5657 188.152 40.2186L188.442 38.8301L188.733 40.2186C188.805 40.5657 189.075 40.8361 189.422 40.9087H189.414Z" fill="white"/>
    <path d="M200.186 51.5957L203.625 52.3142L200.174 53.0366C199.324 53.2142 198.658 53.8762 198.469 54.7278L197.76 57.973L197.05 54.7278C196.865 53.8762 196.196 53.2142 195.345 53.0366L191.895 52.3142L195.333 51.5957C196.192 51.4141 196.861 50.7441 197.042 49.8843L197.76 46.4414L198.477 49.8843C198.658 50.7441 199.328 51.4141 200.186 51.5957Z" fill="white"/>
</svg>
