<svg xmlns="http://www.w3.org/2000/svg" width="27" height="30" viewBox="0 0 27 30" fill="none">
<path d="M1.17695 0.792899C0.808004 1.23962 0.621425 1.81133 0.65513 2.39188V27.6117C0.623332 28.192 0.809687 28.763 1.17695 29.2107L1.26234 29.2969L15.2567 15.1646V14.8295L1.26234 0.706726L1.17695 0.792899Z" fill="url(#paint0_linear_1_91)"/>
<path d="M19.9247 19.8753L15.2567 15.1645V14.8294L19.9247 10.1282L20.029 10.1857L25.5603 13.3549C27.1448 14.2549 27.1448 15.739 25.5603 16.6486L20.029 19.8179L19.9247 19.8753Z" fill="url(#paint1_linear_1_91)"/>
<path d="M20.029 19.8179L15.2852 15.0305L1.177 29.2107C1.50219 29.4805 1.90706 29.6335 2.32788 29.6456C2.74869 29.6578 3.16156 29.5283 3.50149 29.2777L20.0006 19.8179" fill="url(#paint2_linear_1_91)"/>
<path d="M20.029 10.1857L3.50149 0.716297C3.16521 0.455387 2.7496 0.320389 2.32565 0.334359C1.9017 0.348329 1.4957 0.510402 1.177 0.792895L15.2567 15.0018L20.029 10.1857Z" fill="url(#paint3_linear_1_91)"/>
<path opacity="0.1" d="M19.9246 19.7126L3.50138 29.115C3.17378 29.3613 2.77615 29.4944 2.36761 29.4944C1.95906 29.4944 1.56143 29.3613 1.23383 29.115L1.14844 29.2011L1.23383 29.2873C1.56143 29.5337 1.95906 29.6667 2.36761 29.6667C2.77615 29.6667 3.17378 29.5337 3.50138 29.2873L20.0005 19.8275L19.9246 19.7126Z" fill="black"/>
<path opacity="0.07" d="M1.17691 29.0575C0.809034 28.6065 0.622756 28.0323 0.655091 27.449V27.6117C0.623294 28.192 0.809648 28.7631 1.17691 29.2107L1.2623 29.1246L1.17691 29.0575Z" fill="black"/>
<path opacity="0.07" d="M25.5602 16.4763L19.9246 19.7126L20.0289 19.8179L25.5602 16.6104C25.8847 16.4664 26.1654 16.238 26.3738 15.9487C26.5822 15.6594 26.7107 15.3194 26.7462 14.9635C26.6815 15.2925 26.5402 15.6012 26.334 15.8642C26.1278 16.1272 25.8626 16.337 25.5602 16.4763Z" fill="black"/>
<path opacity="0.3" d="M3.50146 0.888633L25.5603 13.5177C25.8597 13.6535 26.1231 13.8587 26.3292 14.1166C26.5353 14.3744 26.6782 14.6777 26.7463 15.0018C26.7127 14.6453 26.5849 14.3045 26.3763 14.0148C26.1677 13.7251 25.8859 13.4972 25.5603 13.3549L3.50146 0.716288C1.94548 -0.183736 0.655151 0.563093 0.655151 2.39187V2.55464C0.655151 0.735438 1.94548 -0.0209659 3.50146 0.888633Z" fill="white"/>
<defs>
<linearGradient id="paint0_linear_1_91" x1="14.0233" y1="2.12379" x2="-5.1158" y2="21.0889" gradientUnits="userSpaceOnUse">
<stop stop-color="#008EFF"/>
<stop offset="0.01" stop-color="#008FFF"/>
<stop offset="0.26" stop-color="#00ACFF"/>
<stop offset="0.51" stop-color="#00C0FF"/>
<stop offset="0.76" stop-color="#00CDFF"/>
<stop offset="1" stop-color="#00D1FF"/>
</linearGradient>
<linearGradient id="paint1_linear_1_91" x1="25.7501" y1="15.0018" x2="-1.59342" y2="15.0018" gradientUnits="userSpaceOnUse">
<stop stop-color="#FFD800"/>
<stop offset="1" stop-color="#FF8A00"/>
</linearGradient>
<linearGradient id="paint2_linear_1_91" x1="17.4389" y1="17.6157" x2="-8.50754" y2="43.3263" gradientUnits="userSpaceOnUse">
<stop stop-color="#FF3A44"/>
<stop offset="1" stop-color="#B11162"/>
</linearGradient>
<linearGradient id="paint3_linear_1_91" x1="-2.37139" y1="-7.60414" x2="9.22303" y2="3.87539" gradientUnits="userSpaceOnUse">
<stop stop-color="#328E71"/>
<stop offset="0.07" stop-color="#2D9571"/>
<stop offset="0.48" stop-color="#15BD74"/>
<stop offset="0.8" stop-color="#06D575"/>
<stop offset="1" stop-color="#00DE76"/>
</linearGradient>
</defs>
</svg>